<svg width="413" height="181" viewBox="0 0 413 181" fill="none" xmlns="http://www.w3.org/2000/svg">
<g clip-path="url(#clip0)">
<path d="M123.166 149.03C121.743 160.108 116.509 170.244 110.926 180.008C110.741 180.34 110.551 180.668 110.357 181H52.3268C51.1531 180.697 49.9946 180.365 48.841 180.008C42.2867 178.025 36.0989 175.001 30.5182 171.053C9.16894 155.772 0.953764 126.898 4.66438 101.025C6.97165 84.9506 14.0729 68.5389 27.9012 59.8815C35.2025 55.3023 44.581 53.814 52.9859 55.5157C53.2059 55.5553 53.4256 55.605 53.6502 55.6496C60.8814 57.267 67.3236 61.2856 70.9893 67.76C77.5812 79.394 73.656 93.8064 70.4151 106.755C67.1839 119.704 65.4308 135.203 74.8097 144.753C71.7133 135.699 74.7697 124.898 82.1658 118.776C87.754 114.157 95.5346 112.426 102.631 113.86C103.31 114.004 103.98 114.167 104.639 114.366C106.232 114.829 107.768 115.468 109.218 116.271C120.28 122.408 124.759 136.542 123.166 149.03Z" fill="#F2F2F2"/>
<path d="M88.7578 180.008C90.3658 180.38 91.9788 180.707 93.6018 181H84.8275C83.6788 180.692 82.5351 180.365 81.4017 180.008C78.9096 179.234 76.4559 178.346 74.0405 177.344C64.3522 173.305 55.428 167.242 48.6761 159.176C45.374 155.267 42.6775 150.891 40.6758 146.192C38.5052 140.881 37.1257 135.284 36.5809 129.577C35.3573 117.868 36.6057 105.837 38.9379 94.3372C41.3446 82.418 45.2297 70.8411 50.504 59.8716C51.1382 58.5569 51.7941 57.2504 52.4716 55.9522C52.5182 55.8454 52.5888 55.7505 52.6779 55.6748C52.767 55.5991 52.8723 55.5447 52.9859 55.5156C53.2164 55.4712 53.4552 55.5194 53.6501 55.6496C53.884 55.7829 54.0574 56.0003 54.1345 56.257C54.2117 56.5136 54.1867 56.7899 54.0646 57.0288C48.6265 67.5644 44.5042 78.7205 41.7894 90.2492C39.1327 101.496 37.6245 113.264 38.1388 124.829C38.6282 135.635 41.47 146.261 47.917 155.097C53.8049 163.164 61.935 169.525 70.9293 173.856C76.6221 176.562 82.6023 178.625 88.7578 180.008Z" fill="white"/>
<path d="M108.014 181H105.427C105.138 180.673 104.858 180.34 104.584 180.008C98.6912 172.895 94.6994 164.422 92.9774 155.37C90.8862 144.075 92.513 132.41 97.6168 122.105C99.0408 119.216 100.719 116.456 102.631 113.86C103.31 114.004 103.979 114.167 104.638 114.366C99.6087 120.986 96.2257 128.694 94.7653 136.86C93.4625 144.512 93.8956 152.357 96.0331 159.821C98.1706 167.286 101.959 174.183 107.121 180.008C107.41 180.34 107.71 180.673 108.014 181Z" fill="white"/>
<path d="M341.053 172.562C341.428 175.486 342.81 178.161 344.283 180.738C344.332 180.826 344.382 180.912 344.433 181H359.748C360.058 180.92 360.364 180.832 360.668 180.738C362.398 180.215 364.031 179.417 365.504 178.375C371.139 174.342 373.307 166.721 372.327 159.893C371.719 155.651 369.844 151.319 366.195 149.035C364.213 147.836 361.849 147.424 359.574 147.882C359.516 147.893 359.458 147.906 359.399 147.918C358.453 148.1 357.555 148.478 356.767 149.029C355.978 149.58 355.316 150.291 354.823 151.114C353.083 154.184 354.119 157.988 354.975 161.405C355.827 164.823 356.29 168.913 353.815 171.434C354.178 170.38 354.251 169.249 354.028 168.157C353.805 167.065 353.294 166.052 352.546 165.222C351.798 164.392 350.842 163.774 349.774 163.433C348.707 163.092 347.567 163.039 346.472 163.28C346.293 163.318 346.116 163.362 345.942 163.414C345.522 163.536 345.117 163.705 344.734 163.917C341.814 165.536 340.632 169.267 341.053 172.562Z" fill="#F2F2F2"/>
<path d="M350.134 180.738C349.71 180.836 349.284 180.923 348.855 181H351.171C351.474 180.919 351.776 180.832 352.075 180.738C352.733 180.534 353.381 180.3 354.018 180.035C356.604 178.992 358.899 177.348 360.712 175.24C361.584 174.209 362.295 173.054 362.824 171.814C363.396 170.412 363.76 168.935 363.904 167.429C364.167 164.315 363.957 161.18 363.282 158.128C362.647 154.982 361.622 151.927 360.23 149.032C360.062 148.685 359.889 148.34 359.71 147.998C359.698 147.969 359.679 147.944 359.656 147.924C359.632 147.904 359.605 147.89 359.575 147.882C359.514 147.871 359.451 147.883 359.399 147.918C359.338 147.953 359.292 148.01 359.272 148.078C359.251 148.146 359.258 148.219 359.29 148.282C360.725 151.062 361.813 154.007 362.53 157.049C363.268 160.034 363.592 163.104 363.493 166.176C363.44 169.032 362.543 171.81 360.912 174.164C359.327 176.284 357.241 177.984 354.839 179.115C353.337 179.829 351.758 180.373 350.134 180.738Z" fill="white"/>
<path d="M345.052 181H345.734C345.811 180.914 345.885 180.826 345.957 180.738C347.512 178.861 348.566 176.625 349.02 174.236C349.572 171.255 349.143 168.176 347.796 165.457C347.42 164.694 346.977 163.966 346.473 163.28C346.293 163.318 346.117 163.362 345.943 163.414C347.27 165.161 348.163 167.195 348.548 169.351C348.892 171.37 348.778 173.441 348.214 175.411C347.65 177.381 346.65 179.201 345.288 180.738C345.211 180.826 345.132 180.914 345.052 181Z" fill="white"/>
<path d="M203.01 105.43H155.077L154.569 90.7893C154.547 90.1546 154.664 89.5227 154.911 88.9372C155.158 88.3516 155.531 87.8262 156.002 87.3972C156.473 86.9682 157.033 86.6458 157.641 86.4521C158.25 86.2584 158.894 86.1981 159.528 86.2752L187.422 89.6684H187.425C191.561 89.6795 195.523 91.3185 198.444 94.2264C201.365 97.1343 203.007 101.074 203.01 105.182V105.43Z" fill="#F39200"/>
<path d="M181.646 53.4964H148.215C147.771 53.4963 147.331 53.5832 146.92 53.7522C146.509 53.9211 146.136 54.1689 145.821 54.4812C145.507 54.7935 145.258 55.1643 145.088 55.5724C144.917 55.9805 144.83 56.4179 144.83 56.8596V90.0711C144.83 90.5128 144.917 90.9502 145.088 91.3583C145.258 91.7664 145.507 92.1372 145.821 92.4495C146.136 92.7618 146.509 93.0095 146.92 93.1785C147.331 93.3475 147.771 93.4344 148.215 93.4343H181.646C182.091 93.4344 182.531 93.3475 182.942 93.1785C183.353 93.0096 183.726 92.7618 184.04 92.4495C184.355 92.1372 184.604 91.7664 184.774 91.3583C184.944 90.9502 185.032 90.5128 185.032 90.0711V56.8596C185.032 56.4179 184.944 55.9805 184.774 55.5724C184.604 55.1643 184.355 54.7935 184.04 54.4812C183.726 54.1689 183.353 53.9211 182.942 53.7522C182.531 53.5832 182.091 53.4963 181.646 53.4964Z" fill="#CCCCCC"/>
<path d="M174.117 78.3307L158.333 81.3843C157.396 81.5644 156.426 81.3681 155.636 80.8386C154.845 80.3091 154.298 79.4896 154.114 78.5598L152.901 72.3701C152.72 71.44 152.917 70.4764 153.45 69.6908C153.983 68.9052 154.808 68.3617 155.744 68.1796L171.528 65.126C172.465 64.946 173.434 65.1422 174.225 65.6717C175.016 66.2012 175.563 67.0207 175.746 67.9505L176.96 74.1402C177.141 75.0703 176.943 76.0339 176.41 76.8195C175.877 77.6051 175.053 78.1486 174.117 78.3307Z" fill="#3F3D56"/>
<path d="M170.959 71.0182L158.913 73.3485C158.693 73.3912 158.465 73.3451 158.279 73.2205C158.092 73.0958 157.964 72.9028 157.921 72.684C157.878 72.4651 157.924 72.2382 158.05 72.0533C158.175 71.8684 158.37 71.7406 158.59 71.6979L170.636 69.3676C170.856 69.3249 171.084 69.371 171.27 69.4956C171.457 69.6203 171.585 69.8133 171.628 70.0321C171.671 70.251 171.625 70.4779 171.499 70.6628C171.374 70.8477 171.179 70.9755 170.959 71.0182Z" fill="white"/>
<path d="M168.618 74.4693L162.387 75.6746C162.167 75.7172 161.938 75.6712 161.752 75.5465C161.566 75.4219 161.437 75.2289 161.395 75.01C161.352 74.7911 161.398 74.5643 161.523 74.3794C161.649 74.1945 161.843 74.0666 162.063 74.024L168.294 72.8187C168.403 72.7976 168.515 72.798 168.624 72.82C168.733 72.842 168.837 72.885 168.929 72.9467C169.021 73.0085 169.1 73.0876 169.161 73.1796C169.223 73.2717 169.265 73.3749 169.287 73.4832C169.308 73.5916 169.307 73.7031 169.285 73.8113C169.263 73.9195 169.22 74.0223 169.158 74.1139C169.096 74.2054 169.016 74.284 168.923 74.3449C168.831 74.4059 168.727 74.4482 168.618 74.4693Z" fill="white"/>
<path d="M185.032 56.8596V61.2738H144.83V56.8596C144.83 56.4179 144.917 55.9805 145.088 55.5724C145.258 55.1643 145.507 54.7935 145.821 54.4812C146.136 54.1689 146.509 53.9211 146.92 53.7522C147.331 53.5832 147.771 53.4963 148.215 53.4964H181.646C182.091 53.4963 182.531 53.5832 182.942 53.7522C183.353 53.9211 183.726 54.1689 184.04 54.4812C184.355 54.7935 184.604 55.1643 184.774 55.5724C184.944 55.9805 185.032 56.4179 185.032 56.8596Z" fill="#B3B3B3"/>
<path d="M265.31 62.6561C265.078 61.9119 264.684 61.2272 264.157 60.6504C263.63 60.0735 262.982 59.6186 262.258 59.3175C261.535 59.0165 260.754 58.8766 259.97 58.9079C259.187 58.9391 258.419 59.1407 257.723 59.4984L211.73 43.1052L209.704 54.5196L255.55 67.0444C256.233 68.1674 257.306 69.0027 258.567 69.3921C259.828 69.7814 261.189 69.6977 262.392 69.1568C263.595 68.6158 264.557 67.6553 265.094 66.4572C265.632 65.2591 265.709 63.9067 265.31 62.6561Z" fill="#FFB8B8"/>
<path opacity="0.2" d="M265.31 62.6561C265.078 61.9119 264.684 61.2272 264.157 60.6504C263.63 60.0735 262.982 59.6186 262.258 59.3175C261.535 59.0165 260.754 58.8766 259.97 58.9079C259.187 58.9391 258.419 59.1407 257.723 59.4984L211.73 43.1052L209.704 54.5196L255.55 67.0444C256.233 68.1674 257.306 69.0027 258.567 69.3921C259.828 69.7814 261.189 69.6977 262.392 69.1568C263.595 68.6158 264.557 67.6553 265.094 66.4572C265.632 65.2591 265.709 63.9067 265.31 62.6561Z" fill="black"/>
<path d="M219.893 45.1851L215.55 56.4571C215.427 56.7778 215.235 57.0683 214.988 57.3088C214.741 57.5493 214.445 57.7341 214.12 57.8506C213.795 57.9672 213.448 58.0128 213.104 57.9843C212.759 57.9558 212.425 57.8538 212.124 57.6854L201.568 51.7834C199.92 51.1459 198.594 49.8852 197.88 48.2777C197.167 46.6703 197.123 44.8472 197.76 43.2082C198.398 41.5692 199.663 40.2481 201.279 39.5344C202.895 38.8207 204.73 38.7727 206.381 39.4009L218.168 41.9979C218.506 42.0724 218.823 42.2182 219.099 42.4255C219.374 42.6328 219.602 42.8966 219.765 43.1991C219.929 43.5016 220.025 43.8355 220.047 44.1782C220.069 44.5209 220.017 44.8643 219.893 45.1851Z" fill="#F39200"/>
<path d="M268.93 73.0933L252.45 80.5351L254.613 88.6274C258.792 104.254 259.9 120.534 257.879 136.578L269.929 139.078L279.917 113.775L276.421 85.0002L268.93 73.0933Z" fill="#F39200"/>
<path d="M301.266 110.551C290.438 110.551 281.614 118.37 281.186 128.163H321.346C320.918 118.37 312.094 110.551 301.266 110.551Z" fill="#3F3D56"/>
<path d="M292.837 112.238C292.273 68.0344 266.933 72.101 266.933 72.101C266.933 72.101 267.407 85.8602 267.634 86.2881C283.783 116.641 257.132 152.225 223.208 145.678C222.568 145.555 221.954 145.43 221.364 145.303C217.066 144.411 213.271 141.926 210.751 138.354C208.231 134.782 207.176 130.39 207.799 126.072C211.141 99.4121 194.52 99.8839 194.52 99.8839H170.216L157.595 88.5991C157.149 88.2008 156.612 87.917 156.031 87.7725C155.449 87.6279 154.841 87.6271 154.259 87.7701C153.677 87.9131 153.14 88.1955 152.693 88.5926C152.246 88.9898 151.905 89.4896 151.697 90.0483L150.074 94.4266C150.074 94.4266 126.103 96.9072 128.1 120.225H135.511C135.493 120.887 135.52 121.55 135.591 122.209L190.9 121.763C194.142 121.737 197.004 124.346 197.017 127.567C197.02 128.351 196.864 129.128 196.558 129.851C196.253 130.574 195.803 131.228 195.237 131.774C194.671 132.321 194 132.748 193.263 133.031C192.527 133.313 191.741 133.446 190.952 133.419L182.035 133.124C179.288 145.279 186.03 153.465 193.459 158.612C200.453 163.388 208.752 165.921 217.239 165.868H241.463C272.925 165.868 278.419 139.574 278.419 139.574C294.899 132.628 292.837 112.238 292.837 112.238Z" fill="#3F3D56"/>
<path d="M299.768 180.256C315.282 180.256 327.859 167.761 327.859 152.349C327.859 136.936 315.282 124.442 299.768 124.442C284.254 124.442 271.677 136.936 271.677 152.349C271.677 167.761 284.254 180.256 299.768 180.256Z" fill="#3F3D56"/>
<path d="M299.768 159.189C303.57 159.189 306.653 156.126 306.653 152.349C306.653 148.571 303.57 145.509 299.768 145.509C295.965 145.509 292.883 148.571 292.883 152.349C292.883 156.126 295.965 159.189 299.768 159.189Z" fill="white"/>
<path d="M157.939 180.256C175.798 180.256 190.275 165.873 190.275 148.132C190.275 130.39 175.798 116.008 157.939 116.008C140.08 116.008 125.603 130.39 125.603 148.132C125.603 165.873 140.08 180.256 157.939 180.256Z" fill="#3F3D56"/>
<path d="M157.939 156.005C162.316 156.005 165.865 152.48 165.865 148.132C165.865 143.783 162.316 140.258 157.939 140.258C153.562 140.258 150.014 143.783 150.014 148.132C150.014 152.48 153.562 156.005 157.939 156.005Z" fill="white"/>
<path d="M252.497 82.734L246.567 66.7343C246.258 65.9004 246.118 65.0142 246.153 64.1263C246.189 63.2385 246.401 62.3663 246.776 61.5596C247.151 60.7529 247.682 60.0274 248.339 59.4247C248.996 58.822 249.767 58.3538 250.606 58.0468L267.605 51.8297C269.082 51.2895 270.652 51.0435 272.224 51.1058C273.797 51.1681 275.342 51.5375 276.771 52.193C278.2 52.8484 279.484 53.777 280.552 54.9257C281.62 56.0745 282.449 57.4209 282.993 58.8881C283.483 60.205 283.734 61.5981 283.732 63.0022C283.726 64.785 283.32 66.5441 282.544 68.1515C281.767 69.7589 280.64 71.1742 279.244 72.2946C278.236 73.0982 277.102 73.7332 275.888 74.1744L252.497 82.734Z" fill="#3F3D56"/>
<path d="M283.482 63.0021C283.481 64.7486 283.085 66.4726 282.325 68.0473C281.564 69.6219 280.458 71.0071 279.088 72.101C276.985 71.55 275.028 70.5507 273.353 69.1725C271.679 67.7943 270.326 66.0703 269.39 64.1204C268.454 62.1705 267.956 60.0414 267.932 57.8811C267.908 55.7209 268.357 53.5813 269.25 51.6111C270.963 51.2411 272.737 51.2568 274.443 51.6572C276.149 52.0577 277.743 52.8326 279.108 53.9251C280.473 55.0176 281.575 56.4 282.332 57.9707C283.089 59.5414 283.482 61.2606 283.482 63.0021Z" fill="#F39200"/>
<path d="M132.345 123.45C136.206 123.45 139.337 119.674 139.337 115.016C139.337 110.358 136.206 106.582 132.345 106.582C128.484 106.582 125.354 110.358 125.354 115.016C125.354 119.674 128.484 123.45 132.345 123.45Z" fill="#F39200"/>
<path d="M224.764 144.87H230.887L233.8 129.095L224.763 129.096L224.764 144.87Z" fill="#FFB8B8"/>
<path d="M223.202 142.885L235.259 142.884H235.26C236.269 142.884 237.268 143.081 238.2 143.465C239.133 143.849 239.98 144.411 240.693 145.12C241.407 145.829 241.973 146.67 242.359 147.596C242.745 148.522 242.944 149.515 242.944 150.517V150.766L223.203 150.766L223.202 142.885Z" fill="#2F2E41"/>
<path d="M231.871 138.396C231.799 138.396 231.728 138.392 231.656 138.385L223.183 137.773C222.84 137.741 222.509 137.632 222.216 137.453C221.923 137.274 221.674 137.031 221.491 136.742C221.307 136.453 221.192 136.126 221.156 135.786C221.119 135.446 221.162 135.102 221.28 134.781L232.62 109.472C232.701 109.246 232.734 109.006 232.717 108.767C232.7 108.528 232.634 108.295 232.522 108.083C232.41 107.869 232.254 107.68 232.064 107.529C231.874 107.379 231.653 107.27 231.418 107.21C226.085 105.826 212.405 102.139 200.562 97.8245C195.488 95.9762 192.292 93.3052 191.064 89.8856C189.444 85.3774 191.84 81.266 191.943 81.0935L192.023 80.9583L203.167 81.9646L215.248 82.9854L241.723 97.0891C243.941 98.2809 245.626 100.259 246.443 102.63C247.259 105 247.146 107.589 246.127 109.881L233.921 137.073C233.745 137.466 233.457 137.801 233.093 138.036C232.729 138.27 232.305 138.396 231.871 138.396Z" fill="#2F2E41"/>
<path d="M205.105 31.8914C211.879 31.8914 217.371 26.4358 217.371 19.7061C217.371 12.9764 211.879 7.52081 205.105 7.52081C198.331 7.52081 192.839 12.9764 192.839 19.7061C192.839 26.4358 198.331 31.8914 205.105 31.8914Z" fill="#FFB8B8"/>
<path d="M221.268 146.359H227.391L230.304 130.583L221.267 130.584L221.268 146.359Z" fill="#FFB8B8"/>
<path d="M219.707 144.373L231.764 144.372H231.764C232.773 144.372 233.773 144.57 234.705 144.953C235.637 145.337 236.484 145.899 237.198 146.608C237.911 147.317 238.477 148.159 238.863 149.085C239.25 150.011 239.448 151.003 239.448 152.006V152.254L219.707 152.255L219.707 144.373Z" fill="#2F2E41"/>
<path d="M228.375 139.884C228.304 139.884 228.232 139.881 228.16 139.874L219.687 139.261C219.344 139.229 219.014 139.12 218.72 138.941C218.427 138.763 218.179 138.52 217.995 138.23C217.811 137.941 217.697 137.614 217.66 137.274C217.624 136.934 217.666 136.591 217.785 136.27L229.124 110.96C229.205 110.735 229.238 110.495 229.222 110.256C229.205 110.017 229.138 109.784 229.026 109.572C228.915 109.357 228.759 109.168 228.568 109.018C228.378 108.867 228.158 108.758 227.922 108.699C222.59 107.314 208.909 103.627 197.066 99.313C191.992 97.4646 188.797 94.7936 187.568 91.374C185.949 86.8658 188.345 82.7544 188.447 82.5819L188.528 82.4467L199.672 83.453L211.753 84.4738L238.227 98.5775C240.446 99.7693 242.131 101.748 242.947 104.118C243.763 106.489 243.65 109.078 242.631 111.37L230.426 138.561C230.249 138.955 229.961 139.289 229.597 139.524C229.234 139.759 228.809 139.884 228.375 139.884Z" fill="#2F2E41"/>
<path d="M208.888 38.801L195.903 34.3359C195.903 34.3359 187.752 40.5573 191.668 55.9909C193.712 63.9553 193.117 72.3622 189.97 79.9637C189.591 80.9042 189.154 81.8206 188.662 82.7078C188.662 82.7078 203.145 100.072 216.628 87.173L211.385 62.1187C211.385 62.1187 219.625 45.4986 208.888 38.801Z" fill="#F39200"/>
<path d="M206.628 32.3058C204.882 29.7099 203.504 26.1104 205.426 23.6405C207.323 21.2025 211.066 21.5617 213.971 20.4829C218.018 18.9803 220.366 14.2569 219.633 10.0268C218.901 5.79666 215.483 2.29003 211.411 0.855225C207.339 -0.579577 202.748 -0.112946 198.76 1.53932C193.851 3.57327 189.641 7.50782 187.875 12.4919C186.109 17.4759 187.053 23.4602 190.716 27.291C194.643 31.3981 200.807 32.4926 206.508 32.4262" fill="#2F2E41"/>
<path d="M195.218 10.1625C193.018 11.9416 189.662 11.1514 187.301 9.59009C184.939 8.02876 183.023 5.80553 180.469 4.58139C175.964 2.42328 170.519 3.85793 166.135 6.24842C161.751 8.63891 157.865 11.9414 153.235 13.8173C148.605 15.6933 142.696 15.786 139.19 12.2438C138.327 14.7273 138.256 17.4148 138.988 19.9396C139.719 22.4644 141.217 24.7036 143.276 26.3515C145.336 27.9995 147.857 28.976 150.496 29.1479C153.135 29.3197 155.763 28.6786 158.022 27.3118C163.095 24.2416 165.898 17.8043 171.588 16.1097C174.737 15.172 178.119 15.9272 181.301 16.7452C184.484 17.5633 187.802 18.4472 191.014 17.7508C194.226 17.0544 197.23 14.1871 196.821 10.9466L195.218 10.1625Z" fill="#2F2E41"/>
<path d="M264.699 62.1598C264.377 61.4497 263.901 60.8185 263.306 60.3107C262.711 59.8029 262.012 59.4308 261.256 59.2208C260.501 59.0107 259.709 58.9676 258.935 59.0947C258.161 59.2218 257.425 59.5159 256.778 59.9562L209.1 49.3257L208.508 60.9013L255.559 67.7108C256.376 68.7416 257.545 69.439 258.845 69.6708C260.144 69.9025 261.485 69.6526 262.611 68.9684C263.738 68.2842 264.573 67.2132 264.958 65.9583C265.342 64.7034 265.251 63.3519 264.699 62.1598Z" fill="#FFB8B8"/>
<path d="M217.46 50.3892L214.55 62.1074C214.467 62.4408 214.313 62.7526 214.098 63.0215C213.883 63.2904 213.612 63.5101 213.304 63.6656C212.996 63.8211 212.657 63.9088 212.312 63.9228C211.967 63.9367 211.622 63.8765 211.302 63.7463L200.095 59.1832C198.379 58.7536 196.905 57.6653 195.996 56.1573C195.087 54.6492 194.817 52.8445 195.246 51.1392C195.675 49.4338 196.767 47.9671 198.283 47.0609C199.799 46.1546 201.615 45.8829 203.333 46.3053L215.352 47.4378C215.696 47.4703 216.029 47.5761 216.329 47.748C216.628 47.92 216.886 48.1539 217.086 48.434C217.286 48.7141 217.423 49.0337 217.488 49.3711C217.552 49.7085 217.543 50.0557 217.46 50.3891V50.3892Z" fill="#F39200"/>
<path d="M259.192 71.3568C261.123 71.3568 262.688 69.802 262.688 67.884C262.688 65.966 261.123 64.4111 259.192 64.4111C257.261 64.4111 255.696 65.966 255.696 67.884C255.696 69.802 257.261 71.3568 259.192 71.3568Z" fill="#F39200"/>
<path d="M414 180.504C414 180.635 413.947 180.761 413.853 180.854C413.76 180.947 413.633 181 413.501 181H0.499397C0.366949 181 0.239925 180.948 0.14627 180.855C0.0526145 180.762 0 180.635 0 180.504C0 180.372 0.0526145 180.246 0.14627 180.153C0.239925 180.06 0.366949 180.008 0.499397 180.008H413.501C413.633 180.008 413.76 180.061 413.853 180.154C413.947 180.246 414 180.372 414 180.504Z" fill="#3F3D56"/>
</g>
<defs>
<clipPath id="clip0">
<rect width="414" height="181" fill="white"/>
</clipPath>
</defs>
</svg>
