<svg width="201" height="166" viewBox="0 0 201 166" fill="none" xmlns="http://www.w3.org/2000/svg">
<g clip-path="url(#clip0)">
<path d="M183.764 151.195C181.684 158.163 184.911 165.286 184.911 165.286C184.911 165.286 191.509 161.113 193.588 154.146C195.668 147.178 192.441 140.055 192.441 140.055C192.441 140.055 185.843 144.228 183.764 151.195Z" fill="#F2F2F2"/>
<path d="M186.92 151.384C188.67 158.441 185.113 165.405 185.113 165.405C185.113 165.405 178.718 160.925 176.968 153.867C175.218 146.809 178.776 139.846 178.776 139.846C178.776 139.846 185.17 144.326 186.92 151.384Z" fill="#F2F2F2"/>
<path d="M15.9868 151.473C13.9076 158.44 17.1345 165.564 17.1345 165.564C17.1345 165.564 23.7324 161.391 25.8116 154.423C27.8908 147.456 24.6639 140.333 24.6639 140.333C24.6639 140.333 18.066 144.506 15.9868 151.473Z" fill="#E6E6E6"/>
<path d="M19.1439 151.661C20.8939 158.719 17.3363 165.682 17.3363 165.682C17.3363 165.682 10.9415 161.202 9.19157 154.145C7.44164 147.087 10.9992 140.124 10.9992 140.124C10.9992 140.124 17.394 144.604 19.1439 151.661Z" fill="#E6E6E6"/>
<path d="M93.0253 86.0764C101.209 86.0764 107.843 79.4215 107.843 71.2123C107.843 63.003 101.209 56.3481 93.0253 56.3481C84.8419 56.3481 78.208 63.003 78.208 71.2123C78.208 79.4215 84.8419 86.0764 93.0253 86.0764Z" fill="#F39200"/>
<path d="M92.3516 165.46H88.2654C87.7883 165.46 87.3309 165.27 86.9935 164.931C86.6561 164.593 86.4664 164.134 86.4658 163.655V129.49C86.4664 129.011 86.6561 128.552 86.9935 128.214C87.3309 127.876 87.7883 127.685 88.2654 127.685H92.3516C92.8288 127.685 93.2862 127.876 93.6235 128.214C93.9609 128.552 94.1507 129.011 94.1512 129.49V163.655C94.1507 164.134 93.9609 164.593 93.6235 164.931C93.2862 165.27 92.8288 165.46 92.3516 165.46Z" fill="#F39200"/>
<path d="M103.857 110.113L101.985 106.469C101.766 106.043 101.725 105.548 101.871 105.092C102.016 104.637 102.336 104.257 102.759 104.037L133.03 88.3809C133.455 88.1621 133.948 88.121 134.403 88.2667C134.857 88.4124 135.235 88.733 135.455 89.1582L137.327 92.8016C137.545 93.2273 137.586 93.7224 137.441 94.1783C137.296 94.6342 136.976 95.0136 136.552 95.2335L106.281 110.89C105.857 111.109 105.363 111.15 104.909 111.004C104.454 110.858 104.076 110.538 103.857 110.113Z" fill="#F39200"/>
<path d="M114.326 147.136L111.002 149.52C110.614 149.798 110.132 149.91 109.661 149.832C109.19 149.753 108.77 149.491 108.492 149.102L88.683 121.31C88.406 120.92 88.2943 120.436 88.3725 119.964C88.4507 119.492 88.7124 119.07 89.1002 118.791L92.4243 116.407C92.8127 116.129 93.2952 116.017 93.7658 116.096C94.2365 116.174 94.6569 116.436 94.9349 116.826L114.744 144.617C115.021 145.007 115.132 145.491 115.054 145.963C114.976 146.435 114.714 146.857 114.326 147.136Z" fill="#F39200"/>
<path d="M103.594 165.221L99.9358 163.394C99.0475 162.95 98.5483 162.139 98.823 161.585L108.251 142.589C108.526 142.035 109.472 141.946 110.36 142.389L114.018 144.216C114.906 144.66 115.406 145.471 115.131 146.025L105.703 165.021C105.428 165.575 104.482 165.664 103.594 165.221Z" fill="#F39200"/>
<path d="M103.498 76.7092L103.482 76.1537C104.513 76.125 105.421 76.0601 106.103 75.56C106.297 75.4102 106.456 75.2203 106.569 75.0032C106.683 74.7862 106.749 74.5472 106.762 74.3023C106.774 74.1527 106.752 74.0024 106.696 73.863C106.641 73.7235 106.554 73.5988 106.443 73.4984C105.99 73.1144 105.261 73.2386 104.73 73.4832L104.272 73.694L105.15 67.2532L105.699 67.3286L104.952 72.8073C105.674 72.5944 106.343 72.6858 106.801 73.0742C106.977 73.2283 107.115 73.4211 107.204 73.6375C107.293 73.8539 107.332 74.0882 107.316 74.3219C107.3 74.6508 107.212 74.9722 107.059 75.2636C106.906 75.555 106.691 75.8093 106.43 76.0086C105.553 76.6514 104.413 76.6834 103.498 76.7092Z" fill="#2F2E41"/>
<path d="M101.981 67.801H98.999V68.3565H101.981V67.801Z" fill="#2F2E41"/>
<path d="M116.604 121.926C116.604 134.043 105.15 133.035 93.0706 133.035C80.9911 133.035 72.8599 134.043 72.8599 121.926C72.8599 109.808 80.9911 89.153 93.0706 89.153C105.15 89.153 116.604 109.808 116.604 121.926Z" fill="#CCCCCC"/>
<path d="M101.784 55.4721C101.23 52.1627 99.1404 49.3178 96.4517 47.3972C93.8158 45.5478 90.6647 44.5813 87.4485 44.636C81.221 44.7047 75.1319 48.2037 71.7931 53.4541C68.0942 59.2708 68.0213 66.8667 70.5218 73.1557C71.161 74.7757 71.9715 76.3224 72.9393 77.7692C74.0127 79.3648 75.313 80.7723 76.5778 82.2133C78.9348 84.8988 81.637 88.6337 80.0576 92.3808C79.4742 93.7648 78.2435 95.0232 76.6774 95.1223C75.3553 95.206 73.8895 94.5717 73.3032 93.325C72.6465 91.9283 73.5558 90.2753 74.8991 89.7037C76.3081 89.1041 77.7725 89.9886 78.293 91.349C78.5516 91.9754 78.5604 92.6775 78.3176 93.3101C78.2657 93.4064 78.2523 93.5188 78.2799 93.6246C78.3076 93.7304 78.3743 93.8218 78.4665 93.8801C78.5618 93.9352 78.6749 93.9504 78.7812 93.9224C78.8876 93.8945 78.9787 93.8256 79.0347 93.7307C79.3143 93.0296 79.375 92.2599 79.2088 91.5235C79.0425 90.787 78.6572 90.1186 78.1038 89.6068C77.5423 89.0671 76.8082 88.7446 76.0321 88.6964C75.2559 88.6483 74.4878 88.8777 73.8642 89.3438C72.5475 90.3086 71.8513 92.0356 72.5186 93.5939C73.0963 94.9432 74.4942 95.758 75.9059 95.93C76.6846 96.007 77.47 95.8804 78.1855 95.5626C78.901 95.2448 79.5223 94.7466 79.989 94.1165C81.0301 92.7488 81.5019 91.0294 81.305 89.3198C80.8429 85.0555 77.4467 82.1401 74.8973 79.0194C72.6302 76.223 71.0325 72.9424 70.227 69.4296C69.4028 65.977 69.4335 62.3745 70.3165 58.9365C71.1729 55.6768 72.9332 52.7274 75.393 50.4307C77.754 48.2358 80.6372 46.6861 83.7666 45.9299C86.8605 45.1572 90.1163 45.3559 93.094 46.4993C96.2151 47.7413 98.985 50.199 100.305 53.3284C100.622 54.0876 100.85 54.8814 100.983 55.6937C101.071 56.2213 101.872 55.9975 101.784 55.4722V55.4721Z" fill="#2F2E41"/>
<path d="M101.765 55.5977C103.152 54.2574 105.413 54.0642 107.084 54.972C108.812 55.911 109.505 57.9334 109.062 59.8048C108.835 60.8502 108.233 61.7754 107.37 62.405C106.935 62.7092 107.349 63.4318 107.789 63.1244C109.659 61.8189 110.446 59.3029 109.808 57.1265C109.142 54.8541 106.929 53.4975 104.618 53.588C103.337 53.6221 102.112 54.1277 101.178 55.0085C100.793 55.3812 101.38 55.97 101.765 55.5977Z" fill="#2F2E41"/>
<path d="M89.6354 105.731L91.9283 102.338C92.1964 101.942 92.6102 101.669 93.0788 101.579C93.5473 101.489 94.0324 101.589 94.4276 101.857L122.618 121.028C123.013 121.297 123.285 121.712 123.375 122.182C123.465 122.652 123.365 123.138 123.098 123.535L120.805 126.928C120.537 127.324 120.123 127.597 119.655 127.687C119.186 127.777 118.701 127.677 118.306 127.409L90.1152 108.238C89.7206 107.969 89.4484 107.554 89.3585 107.084C89.2685 106.614 89.3681 106.128 89.6354 105.731Z" fill="#F39200"/>
<path d="M142.666 88.2044C142.742 87.2239 142.468 86.2483 141.894 85.4512L134.651 80.2666C134.513 80.1682 134.358 80.098 134.194 80.0598C134.029 80.0217 133.859 80.0165 133.692 80.0444C133.526 80.0723 133.366 80.1329 133.223 80.2226C133.08 80.3124 132.956 80.4295 132.858 80.5674L131.816 82.0312C131.812 82.0273 131.813 82.0212 131.808 82.0179C131.787 82.0029 131.761 81.9969 131.736 82.0012C131.71 82.0054 131.688 82.0196 131.673 82.0406L131.246 82.6405C131.239 82.6509 131.233 82.6627 131.231 82.6751C131.228 82.6875 131.227 82.7004 131.229 82.713C131.231 82.7256 131.236 82.7377 131.243 82.7485C131.249 82.7593 131.258 82.7687 131.269 82.7761C131.273 82.7795 131.279 82.7773 131.284 82.7796L130.824 83.4265C130.821 83.4231 130.818 83.4198 130.815 83.4168C130.803 83.4086 130.79 83.4027 130.777 83.3995C130.763 83.3963 130.749 83.3959 130.735 83.3982C130.721 83.4006 130.708 83.4056 130.696 83.4131C130.684 83.4206 130.673 83.4303 130.665 83.4418L129.85 84.5875C129.842 84.599 129.836 84.612 129.833 84.6257C129.83 84.6395 129.83 84.6537 129.832 84.6676C129.834 84.6815 129.839 84.6949 129.847 84.7068C129.854 84.7188 129.864 84.7292 129.875 84.7374C129.879 84.7395 129.883 84.7413 129.887 84.7429L129.557 85.2079C129.554 85.2059 129.553 85.203 129.55 85.2011C129.528 85.1854 129.501 85.1791 129.474 85.1835C129.448 85.188 129.424 85.2029 129.408 85.225L128.578 86.3916C128.563 86.4137 128.556 86.4411 128.561 86.4679C128.565 86.4947 128.58 86.5186 128.602 86.5344C128.605 86.5361 128.608 86.5365 128.61 86.5382L120.811 97.5028C120.736 98.4834 121.009 99.459 121.584 100.256L128.827 105.441C128.964 105.539 129.119 105.609 129.284 105.647C129.448 105.686 129.619 105.691 129.785 105.663C129.952 105.635 130.111 105.574 130.255 105.485C130.398 105.395 130.522 105.278 130.62 105.14L139.013 93.3404C139.022 93.353 139.032 93.3643 139.044 93.374C139.063 93.387 139.084 93.3963 139.106 93.4012C139.128 93.4062 139.151 93.4067 139.173 93.4028C139.195 93.3989 139.216 93.3907 139.235 93.3785C139.255 93.3663 139.271 93.3505 139.284 93.332L140.724 91.3073C140.738 91.2889 140.747 91.2681 140.752 91.246C140.758 91.224 140.759 91.2011 140.755 91.1787C140.751 91.1563 140.743 91.1348 140.732 91.1155C140.72 91.0961 140.704 91.0793 140.686 91.066C140.673 91.0578 140.659 91.0515 140.644 91.0473L142.666 88.2044Z" fill="#3A3768"/>
<path d="M141.24 85.7594L140.173 84.9917L140.082 85.1197C139.968 85.2765 139.798 85.3829 139.608 85.4163C139.417 85.4497 139.221 85.4076 139.061 85.2988L135.653 82.8575C135.491 82.7414 135.382 82.5656 135.35 82.3689C135.317 82.1722 135.364 81.9705 135.48 81.8083L135.571 81.6803L134.551 80.9638C134.356 80.8225 134.112 80.7648 133.875 80.8035C133.637 80.8422 133.424 80.974 133.283 81.17L133.281 81.1736L121.505 97.7306C121.365 97.9277 121.309 98.1723 121.348 98.4111C121.387 98.6498 121.519 98.8634 121.715 99.005L128.419 103.801C128.614 103.941 128.858 103.998 129.096 103.959C129.333 103.919 129.545 103.787 129.686 103.59L129.689 103.586L141.464 87.0338C141.603 86.8365 141.658 86.5918 141.617 86.3537C141.577 86.1156 141.443 85.9035 141.246 85.7641L141.24 85.7594Z" fill="#F2F2F2"/>
<path d="M137.097 82.8823L138.135 83.6255C138.153 83.638 138.168 83.6538 138.179 83.672C138.19 83.6903 138.198 83.7106 138.201 83.7318C138.205 83.753 138.204 83.7747 138.199 83.7957C138.195 83.8166 138.186 83.8364 138.173 83.8539C138.161 83.8714 138.145 83.8863 138.127 83.8977C138.109 83.9091 138.088 83.9168 138.067 83.9203C138.046 83.9239 138.025 83.9232 138.004 83.9184C137.983 83.9135 137.963 83.9046 137.946 83.8921L136.907 83.1489C136.89 83.1364 136.875 83.1206 136.864 83.1024C136.852 83.0841 136.845 83.0638 136.841 83.0426C136.838 83.0214 136.838 82.9997 136.843 82.9787C136.848 82.9578 136.857 82.938 136.869 82.9205C136.882 82.9029 136.897 82.8881 136.916 82.8767C136.934 82.8653 136.954 82.8576 136.975 82.8541C136.996 82.8505 137.018 82.8512 137.039 82.856C137.06 82.8609 137.08 82.8698 137.097 82.8823Z" fill="#E6E8EC"/>
<path d="M138.495 84.3006C138.596 84.3006 138.678 84.2181 138.678 84.1164C138.678 84.0146 138.596 83.9321 138.495 83.9321C138.393 83.9321 138.311 84.0146 138.311 84.1164C138.311 84.2181 138.393 84.3006 138.495 84.3006Z" fill="#E6E8EC"/>
<path d="M134.325 0C129.405 0 124.687 1.96051 121.208 5.45023C117.73 8.93996 115.775 13.673 115.775 18.6083C115.775 28.8845 135.211 66.7953 135.211 66.7953C135.211 66.7953 152.875 28.89 152.875 18.611C152.875 16.1674 152.395 13.7475 151.464 11.4898C150.532 9.23196 149.166 7.18039 147.443 5.4522C145.721 3.724 143.677 2.35302 141.426 1.41753C139.176 0.482042 136.764 0.0003647 134.328 0H134.325ZM134.325 31.0175C132.403 31.0175 130.524 30.4457 128.926 29.3745C127.328 28.3034 126.082 26.7809 125.347 24.9995C124.611 23.2182 124.419 21.2581 124.794 19.3671C125.169 17.4761 126.094 15.7391 127.453 14.3757C128.813 13.0124 130.544 12.0839 132.429 11.7078C134.314 11.3316 136.268 11.5247 138.044 12.2625C139.82 13.0004 141.337 14.2498 142.405 15.853C143.473 17.4561 144.043 19.3409 144.043 21.269C144.043 23.8544 143.019 26.334 141.196 28.1622C139.374 29.9904 136.902 31.0175 134.325 31.0175Z" fill="#F39200"/>
<path d="M201 165.444H0V166H201V165.444Z" fill="#3F3D56"/>
</g>
<defs>
<clipPath id="clip0">
<rect width="201" height="166" fill="white"/>
</clipPath>
</defs>
</svg>
