<svg width="320" height="94" viewBox="0 0 320 94" fill="#F39200" xmlns="http://www.w3.org/2000/svg">
<g filter="url(#filter0_d)">
<path d="M121.961 83.0403L113.576 83.9877C112.701 84.0839 111.917 83.4659 111.82 82.6077L109.723 64.5235C109.626 63.6585 110.251 62.8758 111.126 62.7728L118.983 61.8803C119.962 61.7704 120.844 62.4638 120.962 63.4319L123.072 81.6603C123.148 82.3468 122.655 82.9647 121.961 83.0403ZM203.301 67.9976L167.087 85.6424C167.053 85.6561 167.011 85.6836 166.983 85.6973C166.948 85.711 166.921 85.7316 166.886 85.7522C161.902 88.7388 156.738 87.8737 154.69 87.3382C146.902 84.8803 142.688 83.0746 139.613 81.7564C135.58 80.0262 133.512 79.1406 128.667 79.1886H128.66C128.146 79.1955 127.716 78.8179 127.653 78.3167L127.632 78.1656L125.598 60.5964C125.522 59.9579 125.647 59.3194 125.952 58.7564C127.993 55.0009 131.811 51.2247 136.302 50.7167C144.639 49.7761 148.797 54.7331 148.956 54.9391C149.31 55.3853 149.817 55.7012 150.379 55.8179L170.634 60.157C174.05 61.0015 176.028 63.6653 175.292 66.5489C175.091 67.3247 174.695 68.0525 174.133 68.6292C173.001 69.7964 171.44 70.3044 169.885 70.0641L147.2 65.6838C146.034 65.4573 144.812 66.0203 144.361 67.1119C143.743 68.5949 144.66 70.174 146.166 70.4623L168.982 74.8701C169.003 74.877 169.031 74.877 169.052 74.8838C169.961 75.0349 170.87 75.0555 171.759 74.9525C173.834 74.7191 175.806 73.8197 177.402 72.3161C178.902 70.9018 179.894 69.0137 180.241 66.9952C180.241 66.9815 180.248 66.9746 180.248 66.9609C180.318 66.5558 180.602 66.2262 180.991 66.0683L198.171 59.1958C200.725 57.9943 204.182 57.2734 206.147 60.6444C208.243 64.5991 204.328 67.3591 203.301 67.9976Z" fill="#F39200"/>
<path d="M45.8275 5.17671C45.772 4.65492 45.6609 4.24985 45.5013 3.94776C45.3347 3.64567 44.9945 3.4191 44.4739 3.27492C43.9533 3.12388 43.2245 3.02776 42.2804 2.98657C41.3364 2.94537 40.0592 2.92477 38.4418 2.92477C37.0466 2.92477 35.9221 2.94537 35.0544 2.98657C34.1937 3.02776 33.5065 3.12388 33.0067 3.27492C32.5 3.42597 32.1112 3.64567 31.8405 3.93403C31.5698 4.22239 31.2921 4.6 31.0214 5.06L5.25482 52.1036C4.73421 53.0579 4.38714 53.8269 4.20667 54.3967C4.02619 54.9734 4.05395 55.4128 4.28996 55.7286C4.51903 56.0445 4.98411 56.2436 5.68519 56.326C6.37933 56.4083 7.35808 56.4495 8.62142 56.4495C9.79453 56.4495 10.7733 56.4221 11.5576 56.3672C12.3351 56.3122 12.9598 56.2161 13.4249 56.0788C13.89 55.9415 14.244 55.7424 14.4939 55.4815C14.7368 55.2206 14.959 54.8979 15.1533 54.5203L20.6509 44.1119H40.5867L42.0236 54.7674C42.0514 55.1519 42.1347 55.454 42.2665 55.6669C42.4054 55.8866 42.6483 56.0513 43.0023 56.1612C43.3564 56.271 43.8631 56.3466 44.5225 56.3877C45.1819 56.4289 46.0288 56.4495 47.0631 56.4495C48.5416 56.4495 49.7008 56.4152 50.5477 56.3466C51.3945 56.2779 52.0054 56.0994 52.3733 55.811C52.7412 55.5227 52.9355 55.097 52.9494 54.5203C52.9633 53.9436 52.9008 53.1678 52.762 52.186L45.8275 5.17671ZM24.7394 35.8319L36.5954 13.2919H36.637L39.6705 35.8319H24.7394Z" fill="#F39200"/>
<path d="M96.0348 17.4937C95.9237 17.2878 95.7155 17.123 95.3962 16.9994C95.0838 16.8758 94.6535 16.7797 94.1051 16.7111C93.5567 16.6424 92.8765 16.6081 92.0574 16.6081C90.3914 16.6081 89.1767 16.7317 88.427 16.9788C87.6773 17.226 87.247 17.6379 87.1359 18.2078L86.4765 21.4484C85.1645 19.6427 83.6305 18.2696 81.8812 17.329C80.132 16.3884 78.119 15.9146 75.8491 15.9146C73.4404 15.9146 71.2747 16.3403 69.345 17.1848C67.4153 18.0293 65.7077 19.169 64.2153 20.6039C62.7229 22.0388 61.4457 23.6866 60.3767 25.5403C59.3077 27.4009 58.4261 29.337 57.732 31.3624C57.0378 33.3878 56.5242 35.42 56.191 37.466C55.8647 39.512 55.6981 41.4275 55.6981 43.2057C55.6981 45.1761 55.8994 47.0024 56.2951 48.6982C56.6908 50.3941 57.3433 51.8702 58.2457 53.1266C59.148 54.383 60.3142 55.3648 61.7511 56.0788C63.188 56.786 64.958 57.143 67.0613 57.143C68.4287 57.143 69.7893 56.9302 71.1428 56.5114C72.4964 56.0857 73.7598 55.5227 74.9398 54.8087C76.1129 54.1015 77.1611 53.2982 78.0773 52.4126C78.9936 51.5269 79.6947 50.6275 80.1875 49.7281C79.889 50.497 79.5558 51.4788 79.2018 52.6803C78.8478 53.8818 78.4869 55.3717 78.1329 57.1499C77.9107 58.269 77.5498 59.2096 77.043 59.9785C76.5363 60.7406 75.8769 61.3723 75.0509 61.8666C74.2318 62.3609 73.2669 62.7111 72.1563 62.9308C71.0457 63.1505 69.7962 63.2603 68.401 63.2603C66.6795 63.2603 65.2287 63.1436 64.0556 62.9102C62.8825 62.6767 61.8968 62.4227 61.0986 62.1549C60.3073 61.8803 59.6686 61.6263 59.1897 61.3997C58.7107 61.1663 58.3081 61.0496 57.9819 61.0496C57.6556 61.0496 57.3641 61.18 57.1211 61.4409C56.8782 61.7018 56.6491 62.0314 56.4409 62.4227C56.2326 62.814 56.066 63.2672 55.9272 63.7752C55.7884 64.2833 55.6773 64.7639 55.5801 65.2308C55.483 65.6976 55.4205 66.1164 55.3927 66.5009C55.365 66.8854 55.3511 67.16 55.3511 67.3179C55.3511 67.8123 55.4344 68.1899 55.594 68.4645C55.7606 68.7391 56.0591 68.9863 56.4964 69.1991C57.725 69.7758 59.266 70.2427 61.1125 70.6135C62.9589 70.9842 65.0413 71.1696 67.3667 71.1696C70.5945 71.1696 73.4196 70.8538 75.8352 70.229C78.2578 69.5973 80.3125 68.6636 82.0062 67.4209C83.6999 66.1782 85.0673 64.6335 86.1086 62.7866C87.1498 60.9397 87.9133 58.777 88.4062 56.2917L96.0765 18.2146C96.1736 17.94 96.1459 17.6997 96.0348 17.4937ZM82.5407 34.6854C82.1589 36.5735 81.548 38.3448 80.7151 40.0132C79.8821 41.6815 78.9172 43.137 77.8205 44.3797C76.7237 45.6224 75.5506 46.6042 74.2942 47.332C73.0378 48.0529 71.8023 48.4167 70.6014 48.4167C69.8378 48.4167 69.1854 48.2726 68.6509 47.9842C68.1164 47.6958 67.6791 47.2839 67.3389 46.7552C66.9988 46.2197 66.742 45.5743 66.5823 44.8054C66.4157 44.0433 66.3394 43.192 66.3394 42.2651C66.3394 41.0911 66.4296 39.8484 66.6031 38.537C66.7836 37.2257 67.0543 35.9143 67.4222 34.603C67.7901 33.2917 68.2552 32.0352 68.8175 30.8337C69.3797 29.6323 70.0322 28.5749 70.7888 27.6549C71.5385 26.7418 72.3853 26.0072 73.3294 25.4648C74.2734 24.9155 75.3216 24.6478 76.4669 24.6478C78.001 24.6478 79.3476 25.0254 80.5068 25.7737C81.666 26.529 82.7281 27.6549 83.686 29.1517L82.5407 34.6854Z" fill="#F39200"/>
<path d="M118.31 56.017C118.601 55.9827 118.9 55.969 119.191 55.969C119.282 55.969 119.372 55.9758 119.462 55.9827C120.004 55.7973 120.524 55.5982 121.038 55.3785C123.148 51.7466 126.709 47.9087 131.311 45.9931C131.915 44.9358 132.456 43.8373 132.915 42.6976C133.706 40.7134 134.289 38.6881 134.657 36.6146C135.025 34.5412 135.212 32.5158 135.212 30.5523C135.212 28.2042 134.886 26.117 134.227 24.3045C133.567 22.4851 132.574 20.9609 131.235 19.7114C129.895 18.4687 128.222 17.5281 126.209 16.8827C124.196 16.2442 121.815 15.9215 119.053 15.9215C116.234 15.9215 113.708 16.306 111.466 17.0681C109.223 17.8302 107.231 18.8737 105.496 20.1851C103.761 21.4964 102.268 23.0343 101.026 24.7988C99.7831 26.5633 98.7628 28.4239 97.9714 30.3943C97.1801 32.3648 96.597 34.3833 96.2291 36.4567C95.8612 38.5302 95.6738 40.5555 95.6738 42.5191C95.6738 44.8672 96.0001 46.9543 96.6595 48.7669C97.3189 50.5863 98.3116 52.1173 99.6513 53.36C100.991 54.6027 102.664 55.5433 104.677 56.1887C106.114 56.6487 107.752 56.9439 109.578 57.0743C109.869 57.0057 110.161 56.9508 110.459 56.9164L118.31 56.017ZM107.828 47.0848C107.294 46.4669 106.912 45.7117 106.683 44.8123C106.447 43.9128 106.336 42.883 106.336 41.7364C106.336 40.5075 106.433 39.2167 106.62 37.8642C106.815 36.5117 107.113 35.1797 107.523 33.8684C107.932 32.557 108.453 31.3075 109.085 30.1197C109.716 28.932 110.459 27.8884 111.32 26.9821C112.181 26.0827 113.159 25.3618 114.256 24.8331C115.353 24.2976 116.581 24.0367 117.949 24.0367C119.15 24.0367 120.17 24.2015 121.003 24.5311C121.836 24.8606 122.523 25.3275 123.051 25.9454C123.585 26.5633 123.967 27.3117 124.196 28.1973C124.425 29.083 124.543 30.106 124.543 31.2526C124.543 32.4815 124.446 33.7654 124.259 35.1042C124.064 36.443 123.766 37.7749 123.356 39.1C122.947 40.4251 122.426 41.6815 121.794 42.8693C121.163 44.057 120.42 45.1075 119.559 46.0275C118.699 46.9406 117.72 47.6684 116.623 48.197C115.526 48.7326 114.298 48.9935 112.93 48.9935C111.729 48.9935 110.709 48.8287 109.876 48.4991C109.043 48.1696 108.356 47.6958 107.828 47.0848Z" fill="#F39200"/>
<path d="M146.818 46.3708L148.415 38.3723C148.741 36.6765 149.283 35.0562 150.032 33.5183C150.782 31.9735 151.636 30.6209 152.594 29.4606C153.552 28.3003 154.558 27.3666 155.606 26.6526C156.661 25.9454 157.647 25.5884 158.577 25.5884C159.042 25.5884 159.452 25.6365 159.806 25.7326C160.16 25.8287 160.486 25.9248 160.791 26.0209C161.09 26.1171 161.368 26.2132 161.611 26.3093C161.853 26.4054 162.103 26.4535 162.346 26.4535C162.645 26.4535 162.929 26.2612 163.186 25.8768C163.443 25.4923 163.679 25.0048 163.88 24.4006C164.089 23.7965 164.269 23.1511 164.436 22.4508C164.602 21.7505 164.734 21.0777 164.845 20.4186C164.956 19.7594 165.04 19.1896 165.088 18.6953C165.144 18.2009 165.171 17.8645 165.171 17.6723C165.171 17.3153 165.088 17.0544 164.929 16.8965C164.762 16.7592 164.54 16.6287 164.248 16.5051C163.964 16.3815 163.63 16.2786 163.263 16.1962C162.895 16.1138 162.499 16.0451 162.076 15.9902C161.652 15.9353 161.236 15.9078 160.826 15.9078C159.813 15.9078 158.785 16.1138 157.751 16.5257C156.71 16.9377 155.703 17.5006 154.739 18.2284C153.767 18.9493 152.85 19.8075 151.99 20.7893C151.129 21.7711 150.372 22.8559 149.713 24.0299L150.858 18.2078C150.914 17.9332 150.893 17.6929 150.796 17.4938C150.699 17.2878 150.504 17.123 150.199 16.9994C149.9 16.8759 149.484 16.7797 148.949 16.7111C148.415 16.6424 147.728 16.6081 146.881 16.6081C146.062 16.6081 145.354 16.6424 144.771 16.7111C144.181 16.7797 143.702 16.8759 143.334 16.9994C142.966 17.123 142.681 17.2878 142.494 17.4938C142.299 17.6997 142.181 17.94 142.126 18.2078L136.83 44.7436C137.35 44.7093 137.864 44.6887 138.371 44.6887C141.751 44.6887 144.562 45.4096 146.818 46.3708Z" fill="#F39200"/>
<path d="M172.092 54.4242C173.848 54.8567 175.438 55.5982 176.784 56.5731C177.013 56.5045 177.249 56.4427 177.478 56.3672C178.971 55.8454 180.331 55.1931 181.56 54.3967C182.788 53.6072 183.857 52.7215 184.76 51.7534C185.662 50.7854 186.322 49.8585 186.731 48.9866L185.586 54.8499C185.53 55.152 185.551 55.406 185.648 55.6051C185.746 55.8111 185.954 55.9758 186.287 56.0994C186.613 56.223 187.044 56.3123 187.578 56.3672C187.988 56.4084 188.494 56.4358 189.091 56.4427L194.7 54.1976L201.912 18.2078C201.968 17.9331 201.94 17.6929 201.829 17.4937C201.718 17.2878 201.51 17.123 201.19 16.9994C200.878 16.8758 200.447 16.7797 199.899 16.7111C199.351 16.6424 198.67 16.6081 197.851 16.6081C196.185 16.6081 194.971 16.7317 194.221 16.9788C193.471 17.226 193.041 17.6379 192.93 18.2078L192.27 21.4484C190.959 19.6427 189.424 18.2696 187.675 17.329C185.926 16.3884 183.913 15.9146 181.643 15.9146C179.207 15.9146 177.027 16.3472 175.097 17.2054C173.168 18.0636 171.46 19.2239 169.968 20.6657C168.475 22.1143 167.198 23.7758 166.129 25.6433C165.06 27.5176 164.185 29.4606 163.505 31.486C162.818 33.5045 162.318 35.5367 161.985 37.569C161.659 39.6081 161.492 41.4824 161.492 43.2057C161.492 45.0388 161.68 46.7827 162.048 48.4511C162.395 50.0096 162.964 51.3964 163.755 52.6323L171.904 54.3761C171.967 54.3899 172.029 54.4105 172.092 54.4242ZM172.39 38.5576C172.571 37.2326 172.841 35.9212 173.209 34.6236C173.577 33.326 174.042 32.0764 174.605 30.8749C175.167 29.6734 175.812 28.6161 176.555 27.6961C177.291 26.783 178.138 26.0484 179.096 25.506C180.054 24.9567 181.109 24.689 182.254 24.689C183.788 24.689 185.135 25.0666 186.294 25.8149C187.453 26.5633 188.515 27.6961 189.473 29.1929L188.328 34.7266C187.946 36.6146 187.335 38.3791 186.502 40.0337C185.669 41.6884 184.704 43.137 183.608 44.3797C182.511 45.6224 181.338 46.6042 180.081 47.332C178.825 48.0529 177.589 48.4167 176.388 48.4167C175.542 48.4167 174.841 48.2451 174.299 47.9018C173.751 47.5585 173.313 47.1054 172.987 46.5287C172.661 45.952 172.432 45.2997 172.307 44.5582C172.182 43.8236 172.12 43.0409 172.12 42.2239C172.126 41.1048 172.217 39.8827 172.39 38.5576Z" fill="#F39200"/>
<path d="M209.909 55.7356C210.055 55.6532 210.18 55.5639 210.277 55.4678C210.499 55.2481 210.645 55.0009 210.728 54.7332L219.259 11.9875H232.593C232.92 11.9875 233.232 11.8365 233.517 11.5344C233.801 11.2323 234.051 10.8547 234.252 10.3878C234.461 9.92095 234.634 9.41289 234.787 8.84991C234.94 8.28692 235.058 7.7514 235.155 7.22961C235.252 6.70781 235.321 6.24095 235.363 5.81528C235.405 5.38961 235.426 5.08752 235.426 4.89528C235.426 4.34603 235.335 3.92722 235.162 3.62513C234.981 3.32304 234.731 3.172 234.405 3.172H196.991C196.665 3.172 196.359 3.31618 196.088 3.60453C195.818 3.89289 195.568 4.2705 195.353 4.7305C195.13 5.19737 194.95 5.70543 194.797 6.26841C194.645 6.8314 194.527 7.37379 194.429 7.90931C194.332 8.44483 194.263 8.91856 194.221 9.34424C194.18 9.76991 194.159 10.0857 194.159 10.3054C194.159 10.8272 194.235 11.2323 194.381 11.5344C194.534 11.8365 194.811 11.9875 195.221 11.9875H208.43L200.364 52.3989C200.927 52.3233 201.489 52.2821 202.03 52.2821C205.126 52.2684 207.896 53.5111 209.909 55.7356Z" fill="#F39200"/>
<path d="M255.778 26.2818C255.778 24.9705 255.5 23.6934 254.938 22.4508C254.376 21.2081 253.522 20.1027 252.376 19.1278C251.231 18.1597 249.76 17.377 247.969 16.7934C246.178 16.203 244.04 15.9146 241.548 15.9146C238.674 15.9146 236.12 16.3403 233.877 17.1848C231.635 18.0293 229.657 19.1621 227.95 20.5627C226.242 21.9702 224.784 23.6042 223.583 25.4579C222.382 27.3185 221.397 29.2615 220.626 31.3006C219.863 33.3397 219.307 35.3994 218.967 37.4866C218.627 39.5737 218.454 41.5373 218.454 43.3705C218.454 45.746 218.78 47.8057 219.439 49.5358C220.099 51.2729 221.077 52.7009 222.396 53.82C223.708 54.9391 225.34 55.7767 227.297 56.3191C229.255 56.8684 231.545 57.1361 234.169 57.1361C235.752 57.1361 237.313 57.0469 238.848 56.8684C240.382 56.6899 241.763 56.4633 242.992 56.1955C244.22 55.9209 245.275 55.6188 246.15 55.2961C247.025 54.9666 247.628 54.6439 247.955 54.3143C248.253 54.0397 248.524 53.6484 248.753 53.1266C248.982 52.6048 249.176 52.0555 249.329 51.4651C249.482 50.8746 249.593 50.2842 249.676 49.68C249.759 49.0758 249.801 48.5472 249.801 48.0803C249.801 47.6684 249.732 47.3732 249.593 47.1809C249.454 46.9887 249.225 46.8926 248.899 46.8926C248.573 46.8926 248.052 47.023 247.337 47.2839C246.629 47.5448 245.733 47.8332 244.651 48.1421C243.568 48.4579 242.311 48.7463 240.874 49.0003C239.438 49.2612 237.82 49.3917 236.015 49.3917C233.475 49.3917 231.628 48.8355 230.476 47.7096C229.331 46.5905 228.755 44.9221 228.755 42.7114C228.755 42.1896 228.782 41.6266 228.838 41.0087C228.894 40.3908 228.977 39.7729 229.081 39.1412H232.857C236.848 39.1412 240.291 38.8391 243.172 38.2418C246.06 37.6376 248.434 36.7726 250.308 35.6397C252.182 34.5069 253.563 33.1543 254.452 31.5821C255.333 30.0236 255.778 28.2523 255.778 26.2818ZM245.025 29.2134C244.616 29.8863 243.956 30.463 243.054 30.9573C242.152 31.4517 240.965 31.8361 239.486 32.1245C238.008 32.4129 236.175 32.557 233.989 32.557H230.546C230.9 31.2731 231.372 30.0648 231.962 28.932C232.552 27.7991 233.253 26.8173 234.072 25.9797C234.891 25.149 235.842 24.483 236.925 23.9887C238.008 23.4943 239.229 23.254 240.597 23.254C242.235 23.254 243.491 23.6179 244.352 24.3388C245.213 25.0597 245.643 25.9728 245.643 27.0645C245.643 27.8266 245.442 28.5475 245.025 29.2134Z" fill="#F39200"/>
<path d="M316.155 22.2448C315.801 20.9747 315.224 19.8693 314.433 18.9218C313.642 17.9812 312.594 17.2397 311.296 16.7111C309.998 16.1756 308.387 15.9147 306.478 15.9147C304.972 15.9147 303.507 16.1687 302.091 16.6699C300.668 17.178 299.349 17.8233 298.135 18.6197C296.92 19.4093 295.823 20.3018 294.851 21.2836C293.879 22.2654 293.081 23.2541 292.45 24.2359C292.339 23.0618 292.089 21.9702 291.693 20.9541C291.297 19.9448 290.721 19.0591 289.971 18.3108C289.222 17.5624 288.264 16.972 287.098 16.5463C285.932 16.1206 284.564 15.9078 282.975 15.9078C281.44 15.9078 279.962 16.1618 278.525 16.663C277.088 17.1711 275.762 17.8165 274.548 18.6129C273.333 19.4024 272.243 20.3018 271.285 21.2974C270.327 22.2929 269.564 23.2747 268.988 24.229L270.175 18.2009C270.23 17.9263 270.209 17.686 270.112 17.4869C270.015 17.2809 269.82 17.1162 269.515 16.9926C269.217 16.869 268.8 16.7729 268.266 16.7042C267.731 16.6356 267.044 16.6012 266.197 16.6012C265.378 16.6012 264.67 16.6356 264.087 16.7042C263.497 16.7729 263.018 16.869 262.65 16.9926C262.282 17.1162 262.004 17.2809 261.831 17.4869C261.65 17.6929 261.539 17.9332 261.484 18.2009L254.126 54.8087C254.07 55.0833 254.098 55.3236 254.209 55.5227C254.32 55.7287 254.556 55.9003 254.924 56.0377C255.292 56.175 255.799 56.278 256.444 56.3466C257.09 56.4153 257.916 56.4496 258.922 56.4496C259.908 56.4496 260.741 56.4153 261.428 56.3466C262.109 56.278 262.664 56.175 263.087 56.0377C263.511 55.9003 263.823 55.7287 264.031 55.5227C264.24 55.3168 264.365 55.0765 264.42 54.8087L267.745 38.2487C268.099 36.4156 268.696 34.6923 269.529 33.0651C270.362 31.438 271.32 30.0168 272.403 28.8015C273.486 27.5863 274.61 26.6251 275.79 25.9111C276.963 25.2039 278.102 24.8469 279.191 24.8469C280.392 24.8469 281.246 25.2383 281.732 26.0141C282.225 26.7899 282.468 27.7854 282.468 28.9869C282.468 29.6186 282.433 30.2639 282.364 30.9368C282.294 31.6096 282.176 32.255 282.017 32.8866L277.671 54.8156C277.616 55.0902 277.65 55.3305 277.775 55.5296C277.9 55.7287 278.136 55.9072 278.49 56.0445C278.844 56.1818 279.344 56.2848 279.99 56.3535C280.628 56.4221 281.447 56.4565 282.433 56.4565C283.447 56.4565 284.286 56.4221 284.953 56.3535C285.619 56.2848 286.175 56.1818 286.612 56.0445C287.049 55.9072 287.368 55.7356 287.577 55.5296C287.785 55.3236 287.91 55.0833 287.965 54.8156L291.29 38.2556C291.644 36.4224 292.241 34.6991 293.074 33.072C293.907 31.4448 294.865 30.0236 295.948 28.8084C297.031 27.5932 298.155 26.632 299.335 25.918C300.509 25.2108 301.647 24.8538 302.737 24.8538C303.965 24.8538 304.819 25.252 305.298 26.0415C305.777 26.8311 306.013 27.8747 306.013 29.1586C306.013 29.7902 305.971 30.4081 305.888 31.026C305.805 31.6439 305.708 32.2618 305.604 32.8935L301.217 54.8224C301.133 55.0971 301.154 55.3374 301.279 55.5365C301.404 55.7424 301.64 55.9141 301.994 56.0514C302.348 56.1887 302.855 56.2917 303.514 56.3603C304.174 56.429 304.993 56.4633 305.978 56.4633C306.992 56.4633 307.832 56.429 308.498 56.3603C309.165 56.2917 309.72 56.1887 310.157 56.0514C310.594 55.9141 310.914 55.7424 311.122 55.5365C311.33 55.3305 311.455 55.0902 311.511 54.8224L316.023 32.2412C316.245 31.232 316.404 30.2365 316.516 29.2684C316.627 28.3003 316.682 27.3391 316.682 26.378C316.682 24.8881 316.509 23.515 316.155 22.2448Z" fill="#F39200"/>
<path d="M225.798 68.1143C225.798 69.3089 225.381 70.3044 224.548 71.1008C223.729 71.8835 222.473 72.2749 220.779 72.2749H217.989V78.2686H216.094V63.9125H220.779C222.417 63.9125 223.66 64.3038 224.507 65.0865C225.367 65.8692 225.798 66.8784 225.798 68.1143ZM220.779 70.7301C221.834 70.7301 222.612 70.5035 223.112 70.0504C223.611 69.5972 223.861 68.9519 223.861 68.1143C223.861 66.3429 222.834 65.4572 220.779 65.4572H217.989V70.7301H220.779ZM227.445 72.5838C227.445 71.4304 227.681 70.4211 228.153 69.5561C228.625 68.6772 229.271 67.9975 230.09 67.5169C230.923 67.0364 231.846 66.7961 232.859 66.7961C233.859 66.7961 234.727 67.0089 235.462 67.4346C236.198 67.8602 236.747 68.3958 237.108 69.0411V66.9814H239.023V78.2686H237.108V76.1677C236.733 76.8268 236.17 77.376 235.421 77.8154C234.685 78.2411 233.824 78.454 232.839 78.454C231.825 78.454 230.909 78.2068 230.09 77.7125C229.271 77.2181 228.625 76.5247 228.153 75.6322C227.681 74.7396 227.445 73.7235 227.445 72.5838ZM237.108 72.6044C237.108 71.7531 236.934 71.0116 236.587 70.3799C236.24 69.7483 235.768 69.2677 235.171 68.9381C234.588 68.5949 233.942 68.4232 233.234 68.4232C232.526 68.4232 231.881 68.588 231.298 68.9175C230.714 69.2471 230.249 69.7277 229.902 70.3593C229.555 70.991 229.382 71.7325 229.382 72.5838C229.382 73.4489 229.555 74.2041 229.902 74.8495C230.249 75.4811 230.714 75.9686 231.298 76.3119C231.881 76.6414 232.526 76.8062 233.234 76.8062C233.942 76.8062 234.588 76.6414 235.171 76.3119C235.768 75.9686 236.24 75.4811 236.587 74.8495C236.934 74.2041 237.108 73.4558 237.108 72.6044ZM244.12 68.8146C244.454 68.1692 244.926 67.668 245.537 67.311C246.161 66.954 246.918 66.7755 247.806 66.7755V68.7116H247.307C245.183 68.7116 244.12 69.8513 244.12 72.1307V78.2686H242.225V66.9814H244.12V68.8146ZM249.286 72.6044C249.286 71.4372 249.522 70.4211 249.994 69.5561C250.466 68.6772 251.119 67.9975 251.952 67.5169C252.799 67.0364 253.764 66.7961 254.846 66.7961C256.249 66.7961 257.401 67.1325 258.303 67.8053C259.219 68.4781 259.823 69.4119 260.115 70.6065H258.074C257.88 69.9199 257.498 69.3775 256.929 68.9793C256.373 68.5811 255.679 68.382 254.846 68.382C253.764 68.382 252.889 68.7528 252.223 69.4943C251.556 70.222 251.223 71.2587 251.223 72.6044C251.223 73.9638 251.556 75.0143 252.223 75.7557C252.889 76.4972 253.764 76.868 254.846 76.868C255.679 76.868 256.373 76.6758 256.929 76.2913C257.484 75.9068 257.866 75.3575 258.074 74.6435H260.115C259.809 75.7969 259.199 76.7238 258.282 77.4241C257.366 78.1107 256.221 78.454 254.846 78.454C253.764 78.454 252.799 78.2137 251.952 77.7331C251.119 77.2525 250.466 76.5728 249.994 75.694C249.522 74.8152 249.286 73.7853 249.286 72.6044ZM273.056 72.1925C273.056 72.5495 273.035 72.9271 272.993 73.3253H263.872C263.942 74.4375 264.324 75.3095 265.018 75.9411C265.726 76.559 266.579 76.868 267.579 76.868C268.398 76.868 269.078 76.6826 269.62 76.3119C270.175 75.9274 270.564 75.4193 270.786 74.7877H272.827C272.521 75.8725 271.91 76.7581 270.994 77.4447C270.078 78.1175 268.94 78.454 267.579 78.454C266.496 78.454 265.524 78.2137 264.664 77.7331C263.817 77.2525 263.15 76.5728 262.665 75.694C262.179 74.8014 261.936 73.7716 261.936 72.6044C261.936 71.4372 262.172 70.4143 262.644 69.5355C263.116 68.6567 263.775 67.9838 264.622 67.5169C265.483 67.0364 266.468 66.7961 267.579 66.7961C268.662 66.7961 269.62 67.0295 270.453 67.4964C271.286 67.9632 271.924 68.6086 272.369 69.4325C272.827 70.2426 273.056 71.1626 273.056 72.1925ZM271.098 71.8011C271.098 71.0871 270.939 70.4761 270.619 69.968C270.3 69.4462 269.863 69.0549 269.307 68.794C268.766 68.5193 268.162 68.382 267.496 68.382C266.538 68.382 265.719 68.6841 265.038 69.2883C264.372 69.8925 263.99 70.7301 263.893 71.8011H271.098ZM276.536 65.1483C276.175 65.1483 275.869 65.0247 275.619 64.7776C275.369 64.5304 275.244 64.2283 275.244 63.8713C275.244 63.5143 275.369 63.2122 275.619 62.965C275.869 62.7179 276.175 62.5943 276.536 62.5943C276.883 62.5943 277.174 62.7179 277.41 62.965C277.66 63.2122 277.785 63.5143 277.785 63.8713C277.785 64.2283 277.66 64.5304 277.41 64.7776C277.174 65.0247 276.883 65.1483 276.536 65.1483ZM277.452 66.9814V78.2686H275.557V66.9814H277.452ZM282.577 68.8146C282.91 68.1692 283.382 67.668 283.993 67.311C284.617 66.954 285.374 66.7755 286.263 66.7755V68.7116H285.763C283.639 68.7116 282.577 69.8513 282.577 72.1307V78.2686H280.682V66.9814H282.577V68.8146ZM293.427 78.454C292.358 78.454 291.386 78.2137 290.511 77.7331C289.651 77.2525 288.97 76.5728 288.471 75.694C287.985 74.8014 287.742 73.7716 287.742 72.6044C287.742 71.451 287.992 70.4349 288.492 69.5561C289.005 68.6635 289.699 67.9838 290.574 67.5169C291.449 67.0364 292.427 66.7961 293.51 66.7961C294.593 66.7961 295.572 67.0364 296.446 67.5169C297.321 67.9838 298.008 68.6567 298.508 69.5355C299.022 70.4143 299.278 71.4372 299.278 72.6044C299.278 73.7716 299.015 74.8014 298.487 75.694C297.973 76.5728 297.272 77.2525 296.384 77.7331C295.495 78.2137 294.51 78.454 293.427 78.454ZM293.427 76.8062C294.107 76.8062 294.746 76.6483 295.343 76.3325C295.94 76.0166 296.419 75.5429 296.78 74.9113C297.154 74.2796 297.342 73.5107 297.342 72.6044C297.342 71.6981 297.161 70.9292 296.8 70.2975C296.439 69.6659 295.967 69.199 295.384 68.8969C294.801 68.5811 294.17 68.4232 293.489 68.4232C292.795 68.4232 292.157 68.5811 291.573 68.8969C291.004 69.199 290.546 69.6659 290.199 70.2975C289.852 70.9292 289.678 71.6981 289.678 72.6044C289.678 73.5244 289.845 74.3002 290.178 74.9319C290.525 75.5635 290.983 76.0372 291.553 76.3531C292.122 76.6552 292.747 76.8062 293.427 76.8062ZM305.81 78.454C304.936 78.454 304.151 78.3098 303.457 78.0214C302.763 77.7193 302.215 77.3074 301.812 76.7856C301.41 76.2501 301.187 75.639 301.146 74.9525H303.103C303.159 75.5154 303.423 75.9755 303.895 76.3325C304.38 76.6895 305.012 76.868 305.79 76.868C306.511 76.868 307.081 76.7101 307.497 76.3943C307.914 76.0784 308.122 75.6802 308.122 75.1996C308.122 74.7053 307.9 74.3414 307.455 74.108C307.011 73.8608 306.324 73.6205 305.394 73.3871C304.547 73.1674 303.853 72.9477 303.311 72.728C302.784 72.4946 302.326 72.1581 301.937 71.7187C301.562 71.2656 301.375 70.6752 301.375 69.9474C301.375 69.3707 301.548 68.842 301.895 68.3614C302.242 67.8808 302.735 67.5032 303.374 67.2286C304.013 66.9402 304.741 66.7961 305.56 66.7961C306.824 66.7961 307.844 67.1119 308.622 67.7435C309.399 68.3752 309.816 69.2402 309.871 70.3387H307.976C307.934 69.7483 307.691 69.2746 307.247 68.9175C306.817 68.5605 306.234 68.382 305.498 68.382C304.818 68.382 304.276 68.5262 303.874 68.8146C303.471 69.1029 303.27 69.4805 303.27 69.9474C303.27 70.3181 303.388 70.6271 303.624 70.8743C303.874 71.1077 304.179 71.2999 304.54 71.451C304.915 71.5883 305.429 71.7462 306.081 71.9247C306.9 72.1444 307.567 72.3641 308.08 72.5838C308.594 72.7898 309.031 73.1056 309.392 73.5313C309.767 73.9569 309.961 74.5131 309.975 75.1996C309.975 75.8175 309.802 76.3737 309.455 76.868C309.108 77.3623 308.615 77.7537 307.976 78.042C307.351 78.3166 306.629 78.454 305.81 78.454Z" fill="#F39200"/>
</g>
<defs>
<filter id="filter0_d" x="-3" y="0" width="326" height="98" filterUnits="userSpaceOnUse" color-interpolation-filters="sRGB">
<feFlood flood-opacity="0" result="BackgroundImageFix"/>
<feColorMatrix in="SourceAlpha" type="matrix" values="0 0 0 0 0 0 0 0 0 0 0 0 0 0 0 0 0 0 127 0"/>
<feOffset dy="3"/>
<feGaussianBlur stdDeviation="1.5"/>
<feColorMatrix type="matrix" values="0 0 0 0 0 0 0 0 0 0 0 0 0 0 0 0 0 0 0.15 0"/>
<feBlend mode="normal" in2="BackgroundImageFix" result="effect1_dropShadow"/>
<feBlend mode="normal" in="SourceGraphic" in2="effect1_dropShadow" result="shape"/>
</filter>
</defs>
</svg>
