<svg width="101" height="123" viewBox="0 0 101 123" fill="none" xmlns="http://www.w3.org/2000/svg">
<g clip-path="url(#clip0)">
<rect width="101" height="123" fill="white"/>
<path d="M101 69.1675L83.5425 123H27.0435L9.58594 69.1675L55.293 35.897L101 69.1675Z" fill="#3F3D56"/>
<path d="M32.45 97.4668H32.1716V97.1877H32.1172V97.4668H31.8389V97.5211H32.1172V97.8H32.1716V97.5211H32.45V97.4668Z" fill="#F2F2F2"/>
<path d="M29.2419 114.303H28.9636V114.024H28.9092V114.303H28.6309V114.358H28.9092V114.636H28.9636V114.358H29.2419V114.303Z" fill="#F2F2F2"/>
<path d="M47.5745 119.354H47.2961V119.075H47.2417V119.354H46.9634V119.409H47.2417V119.687H47.2961V119.409H47.5745V119.354Z" fill="#F2F2F2"/>
<path d="M44.3665 106.678C44.704 106.678 44.9776 106.403 44.9776 106.065C44.9776 105.727 44.704 105.453 44.3665 105.453C44.029 105.453 43.7554 105.727 43.7554 106.065C43.7554 106.403 44.029 106.678 44.3665 106.678Z" fill="#FF6584"/>
<path d="M77.9768 60.7324H77.6985V60.4534H77.6441V60.7324H77.3657V60.7867H77.6441V61.0656H77.6985V60.7867H77.9768V60.7324Z" fill="#F2F2F2"/>
<path d="M74.7683 77.5691H74.49V77.29H74.4356V77.5691H74.1572V77.6234H74.4356V77.9023H74.49V77.6234H74.7683V77.5691Z" fill="#F2F2F2"/>
<path d="M93.1013 82.6201H92.823V82.3411H92.7686V82.6201H92.4902V82.6744H92.7686V82.9533H92.823V82.6744H93.1013V82.6201Z" fill="#F2F2F2"/>
<path d="M89.8933 69.9432C90.2308 69.9432 90.5044 69.6691 90.5044 69.331C90.5044 68.9929 90.2308 68.7188 89.8933 68.7188C89.5558 68.7188 89.2822 68.9929 89.2822 69.331C89.2822 69.6691 89.5558 69.9432 89.8933 69.9432Z" fill="#FF6584"/>
<path d="M27.2589 62.6949C27.8495 62.6949 28.3283 62.2152 28.3283 61.6234C28.3283 61.0317 27.8495 60.552 27.2589 60.552C26.6682 60.552 26.1895 61.0317 26.1895 61.6234C26.1895 62.2152 26.6682 62.6949 27.2589 62.6949Z" fill="#F2F2F2"/>
<path d="M26.1402 91.8L25.7935 91.8536C25.9019 92.5485 25.9875 93.2587 26.0501 93.9613L26.4 93.9306C26.3373 93.2189 26.2502 92.5026 26.1402 91.8Z" fill="#E6E6E6"/>
<path d="M25.1916 87.6155L24.8555 87.718C25.0587 88.3915 25.2405 89.0818 25.3948 89.769L25.7385 89.691C25.5811 88.9961 25.3963 88.2981 25.1916 87.6155Z" fill="#E6E6E6"/>
<path d="M23.6782 83.6021L23.3589 83.749C23.6522 84.3903 23.9272 85.0485 24.1762 85.7066L24.5047 85.5826C24.2526 84.9168 23.9761 84.2495 23.6782 83.6021Z" fill="#E6E6E6"/>
<path d="M21.6309 79.8401L21.3345 80.0283C21.7118 80.6222 22.0739 81.2375 22.41 81.8544L22.7186 81.686C22.3795 81.0615 22.0128 80.4401 21.6309 79.8401Z" fill="#E6E6E6"/>
<path d="M19.0852 76.3916L18.8179 76.6197C19.2731 77.1554 19.7162 77.7156 20.1348 78.2819L20.4159 78.0722C19.9942 77.4998 19.5466 76.9334 19.0852 76.3916Z" fill="#E6E6E6"/>
<path d="M16.0941 73.3213L15.8604 73.583C16.3859 74.0529 16.9007 74.5473 17.3912 75.0509L17.6432 74.8045C17.1467 74.2948 16.6257 73.7958 16.0941 73.3213Z" fill="#E6E6E6"/>
<path d="M12.7151 70.6855L12.5181 70.9764C13.1017 71.3697 13.6792 71.7891 14.2337 72.2223L14.4507 71.9452C13.8885 71.5075 13.3049 71.0835 12.7151 70.6855Z" fill="#E6E6E6"/>
<path d="M9.63965 68.855V69.2529C10.0048 69.4443 10.3669 69.6448 10.7213 69.8499L10.897 69.5453C10.4845 69.3065 10.0654 69.0764 9.63965 68.855Z" fill="#E6E6E6"/>
<path d="M26.1641 96.1326L26.5152 96.1262C26.5217 96.4815 26.5222 96.8386 26.5167 97.1879L26.1655 97.1824C26.1709 96.8371 26.1704 96.4839 26.1641 96.1326Z" fill="#E6E6E6"/>
<path d="M55.1365 25.8076H55.1366C63.6749 25.8076 70.5965 33.5034 70.5965 42.9967V55.0581H66.8939L64.7503 50.5892L65.2862 55.0581H41.4872L39.5385 50.9955L40.0257 55.0581H37.3462V45.5878C37.3462 34.6635 45.3112 25.8076 55.1365 25.8076Z" fill="#2F2E41"/>
<path d="M40.1045 82.4263C40.1045 82.4263 42.2647 92.2636 40.6936 96.9856C39.1226 101.708 39.7117 104.462 39.7117 104.462L70.74 103.872C70.74 103.872 69.9545 91.6734 65.4377 90.2962C60.9209 88.9189 40.1045 82.4263 40.1045 82.4263Z" fill="#D0CDE1"/>
<path d="M56.9932 51.9305C62.1992 51.9305 66.4195 47.7023 66.4195 42.4866C66.4195 37.2709 62.1992 33.0427 56.9932 33.0427C51.7872 33.0427 47.5669 37.2709 47.5669 42.4866C47.5669 47.7023 51.7872 51.9305 56.9932 51.9305Z" fill="#FFB9B9"/>
<path d="M51.1019 48.1924C51.1019 48.1924 51.691 55.2753 49.5308 55.6688C47.3706 56.0623 55.815 62.7517 55.815 62.7517L63.4739 56.8493C63.4739 56.8493 58.5644 52.9143 60.7245 49.1761L51.1019 48.1924Z" fill="#FFB9B9"/>
<path d="M54.6364 57.4393L50.781 54.0335C50.781 54.0335 48.745 52.1271 47.9595 53.3076C47.1739 54.488 45.4065 52.9141 45.4065 52.9141L37.3549 62.7514C37.3549 62.7514 32.6417 66.8831 34.8019 74.3595C36.9621 81.8359 39.1223 86.7546 39.1223 86.7546C39.1223 86.7546 38.5332 83.6067 40.8897 84.7871C43.2463 85.9676 60.3315 90.8863 61.3134 92.0668C62.2953 93.2473 62.6881 94.4278 63.8663 93.444C65.0446 92.4603 64.6519 91.87 65.8302 92.2635C67.0084 92.657 68.7759 89.9026 68.7759 89.9026C68.7759 89.9026 65.241 87.9351 66.8121 85.7709C68.3831 83.6066 70.7397 71.2116 70.7397 71.2116L76.042 64.7189C76.042 64.7189 75.8456 61.3742 71.7216 59.4067C67.5976 57.4392 64.4555 56.6523 64.0627 56.062C63.67 55.4718 61.7062 55.4718 61.7062 55.4718L54.6364 57.4393Z" fill="#F39200"/>
<path d="M75.6303 122.995C75.6303 122.997 75.6319 122.998 75.6303 123H33.1483C33.0123 122.645 32.7282 121.472 32.4456 117.644C32.0529 112.332 37.9439 108.201 37.7484 107.807C37.5513 107.414 38.141 107.217 38.3365 106.823C38.5336 106.43 38.3365 106.232 37.9439 105.25C37.5513 104.266 38.3365 104.462 38.7292 103.872C39.1218 103.281 38.9263 102.888 38.7292 101.904C38.5336 100.921 40.0751 99.1794 40.0751 99.1794C40.0751 99.1794 40.1041 102.888 53.0655 103.086C66.0269 103.281 69.7821 99.1794 69.7821 99.1794C72.0875 100.145 73.9895 111.063 74.9581 117.828C75.0971 118.802 75.2178 119.688 75.3156 120.447C75.4837 121.728 75.5906 122.645 75.6303 122.995Z" fill="#575A88"/>
<path d="M76.1298 119.774C76.1298 119.774 70.7878 124.614 68.5581 122.055C66.3284 119.497 73.5926 115.563 73.5926 115.563L76.1298 119.774Z" fill="#FFB9B9"/>
<path d="M83.5041 100.33C82.1292 110.758 81.1484 121.186 79.5763 120.989C78.2533 120.822 76.2336 122.472 75.6301 122.996L75.6256 123H75.3567L74.2384 121.226L71.4976 116.879L70.7398 115.676C70.7398 115.676 72.4183 111.207 72.6522 109.102C72.7755 107.991 74.3419 103.229 73.5688 99.1527C73.3634 98.0726 73.5168 97.1194 73.2633 96.0915C72.468 92.8666 71.5805 88.9913 71.2772 85.6834L68.5796 69.0482L71.7222 62.1621L74.9438 62.1123C74.9438 62.1123 78.0058 67.6707 78.0058 68.26C78.0058 68.8508 84.8791 89.9026 83.5041 100.33Z" fill="#F39200"/>
<path d="M65.8301 23.7955C65.8301 23.7955 72.8998 22.4183 73.489 25.763C74.0781 29.1077 65.8301 28.7142 65.8301 28.7142V23.7955Z" fill="#FFB9B9"/>
<path d="M50.741 30.5425C52.2932 28.5401 54.5827 27.2717 57.1385 27.2717H57.442C63.2941 27.2717 68.0382 32.5771 68.0382 39.1217V39.1217H66.0773L65.7606 36.7068L65.2963 39.1217H53.6663L52.6919 37.0786L52.9355 39.1217H50.6476C49.5799 44.4338 51.114 49.7458 55.2496 55.0579H51.3522L49.4034 50.9717L49.8906 55.0579H42.4611L40.9995 45.6596C40.9995 38.6212 45.0814 32.6527 50.741 30.5425Z" fill="#2F2E41"/>
<path d="M37.3548 63.7355C37.3548 63.7355 33.2307 56.4559 34.2127 47.799C35.1946 39.1421 33.8199 27.1405 38.7294 25.96C43.639 24.7795 67.0084 23.2056 67.0084 23.2056C67.0084 23.2056 67.5975 29.6982 67.0084 30.4852C66.4192 31.2722 64.6518 30.2885 63.4735 30.682C62.2952 31.0755 50.1196 31.469 48.5485 35.0104L46.9775 38.5519C46.9775 38.5519 47.3702 43.0771 45.4064 43.864C43.4426 44.651 45.21 49.1762 45.0136 49.5697C44.8173 49.9632 45.4064 52.9144 45.4064 52.9144L45.21 58.8168L37.3548 63.7355Z" fill="#F39200"/>
<path d="M71.7486 19.603C70.0761 17.1123 69.3499 14.1035 69.7017 11.1224C70.0535 8.14129 71.46 5.38517 73.6662 3.35387C75.8723 1.32256 78.7319 0.150577 81.7266 0.0504472C84.7212 -0.0496829 87.6525 0.928672 89.9889 2.80809C92.3253 4.68751 93.9121 7.34355 94.4615 10.2945C95.0109 13.2455 94.4866 16.2961 92.9836 18.893C91.4805 21.4899 89.0984 23.4612 86.2691 24.4494C83.4398 25.4376 80.3507 25.3773 77.562 24.2793C77.3812 24.9259 77.0432 25.5174 76.5783 26.0009C76.1134 26.4845 75.536 26.845 74.8979 27.0501C74.2598 27.2553 73.5809 27.2988 72.9219 27.1766C72.2629 27.0544 71.6445 26.7705 71.1219 26.3501C70.5994 25.9298 70.189 25.3861 69.9276 24.7679C69.6661 24.1497 69.5618 23.4762 69.6239 22.8077C69.686 22.1392 69.9126 21.4965 70.2834 20.9372C70.6542 20.378 71.1576 19.9195 71.7486 19.603V19.603Z" fill="#3F3D56"/>
<path d="M77.2239 13.7623C78.0247 13.7623 78.6738 13.1119 78.6738 12.3096C78.6738 11.5073 78.0247 10.8569 77.2239 10.8569C76.4231 10.8569 75.7739 11.5073 75.7739 12.3096C75.7739 13.1119 76.4231 13.7623 77.2239 13.7623Z" fill="#F39200"/>
<path d="M82.1707 13.7623C82.9714 13.7623 83.6206 13.1119 83.6206 12.3096C83.6206 11.5073 82.9714 10.8569 82.1707 10.8569C81.3699 10.8569 80.7207 11.5073 80.7207 12.3096C80.7207 13.1119 81.3699 13.7623 82.1707 13.7623Z" fill="#F39200"/>
<path d="M87.1179 13.7623C87.9187 13.7623 88.5679 13.1119 88.5679 12.3096C88.5679 11.5073 87.9187 10.8569 87.1179 10.8569C86.3171 10.8569 85.668 11.5073 85.668 12.3096C85.668 13.1119 86.3171 13.7623 87.1179 13.7623Z" fill="#F39200"/>
<path d="M20.992 72.0588H20.7136V71.7798H20.6592V72.0588H20.3809V72.1132H20.6592V72.3921H20.7136V72.1132H20.992V72.0588Z" fill="#F2F2F2"/>
<path d="M17.784 88.8955H17.5056V88.6165H17.4512V88.8955H17.1729V88.9498H17.4512V89.2287H17.5056V88.9498H17.784V88.8955Z" fill="#F2F2F2"/>
<path d="M36.1165 93.9465H35.8381V93.6675H35.7837V93.9465H35.5054V94.0008H35.7837V94.2797H35.8381V94.0008H36.1165V93.9465Z" fill="#F2F2F2"/>
<path d="M32.9085 81.2696C33.246 81.2696 33.5195 80.9955 33.5195 80.6574C33.5195 80.3193 33.246 80.0452 32.9085 80.0452C32.571 80.0452 32.2974 80.3193 32.2974 80.6574C32.2974 80.9955 32.571 81.2696 32.9085 81.2696Z" fill="#FF6584"/>
<path d="M18.8153 51.2984L15.9006 50.1461L12.9858 48.9937L15.4392 47.041L17.8927 45.0881L18.354 48.1933L18.8153 51.2984Z" fill="#3F3D56"/>
<path d="M5.82942 94.9202L2.91478 93.7679L0 92.6156L2.45341 90.6628L4.90681 88.71L5.36819 91.8151L5.82942 94.9202Z" fill="#3F3D56"/>
<path d="M98.2497 52.0263L95.4968 53.526L92.7441 55.0255L92.8242 51.8874L92.9042 48.749L95.577 50.3877L98.2497 52.0263Z" fill="#3F3D56"/>
</g>
<defs>
<clipPath id="clip0">
<rect width="101" height="123" fill="white"/>
</clipPath>
</defs>
</svg>
