<svg width="59" height="76" viewBox="0 0 59 76" fill="none" xmlns="http://www.w3.org/2000/svg">
<path d="M58.1158 46.2089C58.1212 51.9196 56.4376 57.5047 53.2762 62.2643C50.1147 67.0238 45.616 70.7459 40.3441 72.964C35.0722 75.182 29.2616 75.7973 23.6408 74.7327C18.02 73.6681 12.8391 70.971 8.74763 66.9795C4.65613 62.9879 1.83609 57.8796 0.64103 52.295C-0.554028 46.7103 -0.0709192 40.8977 2.02979 35.586C4.13051 30.2742 7.75534 25.6996 12.4499 22.4357C17.1444 19.1718 22.6998 17.3638 28.4195 17.2383C28.5097 17.2363 28.5999 17.2344 28.6921 17.2324C28.8216 17.2305 28.953 17.2305 29.0844 17.2305C29.414 17.2305 29.7435 17.2363 30.0711 17.2481C30.793 17.2716 31.507 17.3212 32.2132 17.3969C32.6212 17.44 33.0233 17.4928 33.4254 17.5516C33.4705 17.5594 33.5176 17.5653 33.5627 17.5731C35.2221 17.8285 36.8558 18.2288 38.4451 18.7695C44.1823 20.7225 49.1636 24.4183 52.691 29.3388C56.2185 34.2594 58.1153 40.1583 58.1158 46.2089V46.2089Z" fill="#F39200"/>
<path d="M6.87041 47.7732C6.92784 47.6827 6.77834 47.4854 6.5365 47.3325C6.29465 47.1796 6.05204 47.1291 5.99461 47.2196C5.93718 47.3102 6.08668 47.5075 6.32853 47.6603C6.57037 47.8132 6.81298 47.8638 6.87041 47.7732Z" fill="#3F3D56"/>
<path d="M6.02148 46.0886C6.15019 45.8857 6.35437 45.7422 6.58909 45.6896C6.82382 45.637 7.06987 45.6796 7.27311 45.8081L18.7682 53.074C18.9714 53.2025 19.1152 53.4063 19.1679 53.6406C19.2206 53.8749 19.178 54.1205 19.0492 54.3234L6.02148 46.0886Z" fill="#D0CDE1"/>
<path d="M4.93408 46.4729L5.29572 45.9029C5.38367 45.7642 5.5232 45.6661 5.68359 45.6302C5.84399 45.5942 6.01213 45.6234 6.15102 45.7111L19.2391 53.9841C19.3206 54.0356 19.3911 54.1026 19.4466 54.1812C19.5021 54.2599 19.5415 54.3487 19.5626 54.4426C19.5838 54.5365 19.5862 54.6336 19.5697 54.7285C19.5532 54.8233 19.5182 54.9139 19.4666 54.9952L19.1661 55.4689L4.93408 46.4729Z" fill="#2F2E41"/>
<path d="M6.88279 46.7861L6.74414 47.0046L7.61994 47.5582L7.75859 47.3397L6.88279 46.7861Z" fill="#D0CDE1"/>
<path d="M8.08739 47.5471L7.94873 47.7656L8.82454 48.3192L8.9632 48.1007L8.08739 47.5471Z" fill="#D0CDE1"/>
<path d="M25.435 20.9967C29.9473 20.9967 33.6053 17.3454 33.6053 12.8412C33.6053 8.33711 29.9473 4.68579 25.435 4.68579C20.9226 4.68579 17.2646 8.33711 17.2646 12.8412C17.2646 17.3454 20.9226 20.9967 25.435 20.9967Z" fill="#FFB8B8"/>
<path d="M25.9329 18.6097C25.9329 18.6097 29.9185 24.8755 28.9221 26.6657C27.9257 28.4559 24.8369 33.3293 24.8369 33.3293C24.8369 33.3293 38.587 23.1847 36.7935 20.9967C36.7935 20.9967 32.7083 17.5157 32.5091 15.3276L25.9329 18.6097Z" fill="#FFB8B8"/>
<path d="M36.9425 74.1142C30.3138 75.9621 23.2441 75.4107 16.9834 72.5576L17.6111 55.8167L17.6582 54.5146L17.6758 54.0917L17.6974 53.469L17.7131 53.0715C17.7131 53.0715 17.7386 53.0696 17.7876 53.0676C17.921 53.0578 18.229 53.0363 18.6703 53.0108C19.1823 52.9815 19.8708 52.9443 20.6731 52.911C20.8634 52.9031 21.0596 52.8953 21.2616 52.8855C25.4868 52.7289 32.0856 52.6956 32.9585 53.9663L33.0684 54.7143L33.2449 55.9224L33.6058 58.3914C33.6058 58.3914 37.7095 66.5368 36.9425 74.1142Z" fill="#2F2E41"/>
<path d="M44.4661 31.1412L37.4077 46.729L34.3428 53.496L33.2069 56.0053L16.7666 55.8064L18.4605 44.3689C16.0691 38.2026 21.7485 35.7162 21.7485 35.7162L26.5312 30.629V31.4395C26.5312 31.4395 31.2142 25.87 33.3066 22.6873C35.399 19.5047 38.2885 20.6982 38.2885 20.6982C43.2704 20.2009 44.4661 31.1412 44.4661 31.1412Z" fill="#575A89"/>
<path opacity="0.2" d="M37.4075 46.7291L34.3426 53.4962C33.3582 51.6582 32.6089 49.5766 32.6089 48.3473C32.6089 44.9658 35.9966 46.756 35.9966 46.756C35.9966 46.756 33.2565 31.7878 33.2565 27.3122C33.2565 24.3394 35.7395 37.5324 37.4075 46.7291Z" fill="black"/>
<path d="M34.7014 47.8501L19.8553 47.5518C19.8553 47.5518 8.99477 48.4469 10.589 52.823C12.1832 57.199 20.8517 52.823 20.8517 52.823L38.1888 55.5083L34.7014 47.8501Z" fill="#FFB8B8"/>
<path d="M37.4913 21.494C37.4913 21.494 32.3101 21.8919 32.3101 26.3674C32.3101 30.843 36.9931 46.756 36.9931 46.756C36.9931 46.756 33.6054 44.9658 33.6054 48.3473C33.6054 51.7289 39.2848 61.5751 39.8826 55.0109C39.8826 55.0109 48.4515 59.1881 47.9533 51.331C47.4551 43.474 42.0746 26.8647 42.0746 26.8647C42.0746 26.8647 41.4768 21.1957 37.4913 21.494Z" fill="#575A89"/>
<path d="M25.7065 11.9542C25.1344 11.4015 25.1449 10.4693 24.6838 9.8214C23.9597 8.80396 22.4521 8.87216 21.2143 9.04781C20.3915 9.16457 19.5566 9.2847 18.793 9.60937C18.4513 9.74973 18.1469 9.96741 17.9038 10.2452C17.6608 10.5231 17.4857 10.8535 17.3924 11.2104C17.2954 11.6112 17.0817 10.474 16.8641 9.00111C16.6412 7.4983 16.902 5.96365 17.609 4.61828C18.3159 3.27292 19.4325 2.18629 20.7978 1.51498C20.814 1.50703 20.8301 1.49918 20.8461 1.49144C22.2462 0.812278 23.713 0.212476 25.2605 0.0439367C26.808 -0.124602 28.4593 0.180554 29.673 1.15357C30.2278 1.59828 30.679 2.16919 31.2737 2.559C32.3186 3.24391 33.6418 3.27708 34.8835 3.42147C36.2877 3.58477 37.6952 3.92767 38.9075 4.65371C40.1198 5.37974 41.1242 6.52514 41.4612 7.89564C41.8543 9.4943 41.2127 11.3841 39.6381 12.0778C39.3631 12.1933 39.1193 12.3719 38.9264 12.5991C37.6334 14.1769 39.7207 15.0402 40.0235 16.4135C40.2761 17.5595 39.172 18.5971 38.0398 18.9126C35.9311 19.5003 33.4765 18.3297 32.6096 16.3229C32.2213 15.424 32.1328 14.4295 32.0272 13.4562C31.9062 12.3421 28.9788 10.3242 30.9551 11.8421C31.3386 12.1288 31.6407 12.5102 31.8317 12.9488C32.4329 14.3854 31.1852 15.2009 30.5159 16.2265C30.1516 16.8034 29.9566 17.4707 29.9529 18.1526C29.9493 18.8345 30.1372 19.5038 30.4953 20.0846C28.7605 19.1798 27.883 16.9121 28.5582 15.0783C28.7377 14.5908 29.0097 14.1402 29.1728 13.647C29.4272 12.8775 29.2023 11.3821 28.0645 11.6853C27.2523 11.9017 26.5583 12.7769 25.7065 11.9542Z" fill="#2F2E41"/>
</svg>
