<svg width="77" height="67" viewBox="0 0 77 67" fill="none" xmlns="http://www.w3.org/2000/svg">
<g clip-path="url(#clip0)">
<path d="M54.3712 66.3007C53.1351 65.239 52.3843 63.5619 52.5812 61.9292C52.7781 60.2964 53.9976 58.7955 55.5796 58.4487C57.1615 58.102 58.9648 59.0618 59.4453 60.6326C59.7097 57.6042 60.0144 54.4489 61.5984 51.87C63.0327 49.5348 65.5168 47.8639 68.2091 47.565C70.9014 47.2661 73.736 48.3951 75.4151 50.555C77.0941 52.715 77.5053 55.8552 76.3293 58.335C75.463 60.1618 73.8669 61.5214 72.1947 62.6274C66.7911 66.1714 60.3101 67.6125 53.9443 66.6858" fill="#F2F2F2"/>
<path d="M72.7528 48.4577C70.5314 50.2969 68.4934 52.354 66.6685 54.599C63.8124 58.1005 61.5012 62.0264 59.8155 66.2397C59.6921 66.5471 60.1831 66.6809 60.3051 66.3769C61.3771 63.713 62.7034 61.1623 64.265 58.7614C66.7 55.0108 69.6832 51.6594 73.1119 48.8227C73.3654 48.6129 73.0043 48.2496 72.7528 48.4577V48.4577Z" fill="white"/>
<path d="M53.5176 66.3007C54.7537 65.239 55.5045 63.5619 55.3076 61.9292C55.1107 60.2964 53.8912 58.7955 52.3093 58.4487C50.7273 58.102 48.924 59.0618 48.4436 60.6326C48.1791 57.6042 47.8744 54.4489 46.2904 51.87C44.8562 49.5348 42.372 47.8639 39.6797 47.565C36.9875 47.2661 34.1528 48.3951 32.4738 50.555C30.7947 52.715 30.3836 55.8552 31.5596 58.335C32.4259 60.1618 34.0219 61.5214 35.6941 62.6274C41.0978 66.1714 47.5787 67.6125 53.9445 66.6858" fill="#F2F2F2"/>
<path d="M35.1357 48.4577C37.3571 50.2969 39.3951 52.354 41.2201 54.599C44.0761 58.1005 46.3873 62.0264 48.073 66.2397C48.1964 66.5471 47.7054 66.6809 47.5834 66.3769C44.8252 59.5293 40.4221 53.4939 34.7766 48.8227C34.5231 48.6129 34.8843 48.2496 35.1357 48.4577V48.4577Z" fill="white"/>
<path d="M49.8497 30.1398C47.563 30.1398 45.7092 28.2555 45.7092 25.9311C45.7092 23.6067 47.563 21.7224 49.8497 21.7224C52.1365 21.7224 53.9902 23.6067 53.9902 25.9311C53.9902 28.2555 52.1365 30.1398 49.8497 30.1398Z" fill="#F2F2F2"/>
<path d="M62.6155 11.423H34.0886V13.0094H58.9738C60.437 13.0094 61.8858 13.3024 63.2376 13.8715C64.5894 14.4407 65.8176 15.2749 66.8523 16.3265C67.8869 17.3782 68.7076 18.6267 69.2675 20.0007C69.8274 21.3748 70.1156 22.8475 70.1156 24.3347V42.3587H73.2371C73.3751 42.3587 73.5074 42.303 73.6049 42.2038C73.7025 42.1046 73.7573 41.9701 73.7573 41.8299V22.7483C73.7573 21.261 73.4691 19.7883 72.9092 18.4143C72.3493 17.0402 71.5286 15.7917 70.494 14.7401C69.4594 13.6884 68.2311 12.8542 66.8793 12.2851C65.5275 11.7159 64.0787 11.423 62.6155 11.423Z" fill="#F2F2F2"/>
<path d="M57.1289 66.389V42.2908H50.1835V66.389C50.1837 66.551 50.2471 66.7063 50.3598 66.8208C50.4725 66.9354 50.6252 66.9998 50.7846 67H56.5279C56.6872 66.9998 56.84 66.9354 56.9527 66.8208C57.0653 66.7063 57.1287 66.551 57.1289 66.389Z" fill="#3F3D56"/>
<path d="M75.2266 41.8156V22.22C75.2231 19.1005 74.0024 16.1098 71.8324 13.904C69.6623 11.6982 66.7201 10.4574 63.6511 10.4539H34.2222V42.4944H74.5587C74.7358 42.4942 74.9055 42.4226 75.0307 42.2953C75.1559 42.1681 75.2264 41.9955 75.2266 41.8156ZM34.4893 10.7254H63.6511C66.6492 10.7288 69.5236 11.941 71.6436 14.0959C73.7635 16.2508 74.956 19.1725 74.9594 22.22V41.8156C74.9593 41.9235 74.9171 42.0271 74.8419 42.1034C74.7668 42.1798 74.665 42.2227 74.5587 42.2229H34.4893V10.7254Z" fill="#3F3D56"/>
<path d="M49.8496 28.1033C50.4871 28.1026 51.0981 27.8449 51.5489 27.3868C51.9996 26.9286 52.2531 26.3075 52.2538 25.6596V8.1459C52.2539 8.03791 52.2962 7.93438 52.3713 7.85803C52.4464 7.78167 52.5483 7.73872 52.6545 7.7386H62.0041C62.1811 7.73839 62.3508 7.66681 62.476 7.53955C62.6012 7.41229 62.6717 7.23975 62.6719 7.05978V0.678825C62.6717 0.498853 62.6012 0.326312 62.476 0.199053C62.3508 0.0717934 62.1811 0.000208405 62.0041 0H48.1133C47.9362 0.000205895 47.7665 0.0717908 47.6413 0.199051C47.5161 0.32631 47.4457 0.498852 47.4455 0.678825V25.6596C47.4462 26.3075 47.6997 26.9286 48.1504 27.3868C48.6012 27.8449 49.2122 28.1026 49.8496 28.1033Z" fill="#F39200"/>
<path d="M33.1539 10.1824C31.139 10.1781 29.2049 10.9876 27.7772 12.4328C26.3494 13.878 25.5449 15.8405 25.5407 17.8886V40.1961H10.5815C9.98051 40.1948 9.40369 40.4362 8.97787 40.8673C8.55206 41.2983 8.31212 41.8836 8.31085 42.4944H40.7671V17.8886C40.7629 15.8405 39.9584 13.878 38.5306 12.4328C37.1029 10.9876 35.1688 10.1781 33.1539 10.1824Z" fill="#3F3D56"/>
<path d="M34.9804 22.8856L33.4039 29.5049L2.56635 21.9168L4.14279 15.2974C4.16184 15.2165 4.20069 15.1418 4.25574 15.0802C4.31079 15.0186 4.38026 14.9721 4.45769 14.9451C4.51486 14.9247 4.57532 14.9154 4.63588 14.9179L22.4613 5.53625C22.5658 5.48203 22.6859 5.46755 22.7999 5.49541C22.9139 5.52328 23.0144 5.59165 23.0832 5.6882L31.6741 17.8655L34.9128 22.4574C34.9187 22.4655 34.9228 22.4747 34.9248 22.4845C34.9269 22.4943 34.9268 22.5044 34.9247 22.5142C34.9906 22.6257 35.0106 22.7591 34.9804 22.8856Z" fill="white"/>
<path d="M34.9251 22.5142C34.9236 22.5228 34.9204 22.531 34.9157 22.5384C34.9111 22.5457 34.9051 22.5521 34.898 22.5571C34.8896 22.5629 34.8802 22.5669 34.8702 22.5689C34.8603 22.5709 34.85 22.5709 34.8401 22.5687C34.824 22.5643 34.8099 22.5544 34.8002 22.5406L34.7891 22.5249L34.6204 22.2852L31.5579 17.9456L22.9696 5.77109C22.9206 5.7021 22.8489 5.65326 22.7675 5.63342C22.6861 5.61359 22.6004 5.62408 22.5259 5.66299L4.83856 14.9719L4.67983 15.0557C4.67342 15.0584 4.66685 15.0608 4.66015 15.0627C4.64819 15.0605 4.63605 15.0593 4.62389 15.0592C4.60729 15.0535 4.59345 15.0416 4.58519 15.0259C4.58088 15.0177 4.57822 15.0086 4.57736 14.9993C4.5765 14.99 4.57745 14.9806 4.58017 14.9717C4.58288 14.9627 4.58731 14.9544 4.59318 14.9472C4.59906 14.94 4.60627 14.9341 4.61441 14.9297L4.63633 14.9179L22.4618 5.53625C22.5662 5.48203 22.6863 5.46755 22.8003 5.49541C22.9144 5.52328 23.0149 5.59165 23.0837 5.6882L31.6746 17.8655L34.9132 22.4574C34.9191 22.4655 34.9232 22.4747 34.9253 22.4845C34.9273 22.4943 34.9273 22.5044 34.9251 22.5142Z" fill="#3F3D56"/>
<path d="M25.6634 23.1891L24.977 23.2665L19.8825 23.8402L16.5052 24.2202L16.3057 24.2428L12.0914 20.8969L11.93 20.7687L10.9346 19.9785L7.39333 17.1674L7.37207 16.9699L6.11249 5.41439C6.09533 5.25527 6.14093 5.09572 6.2393 4.97073C6.33768 4.84573 6.4808 4.76548 6.63729 4.74757L23.4472 2.85477C23.6037 2.8374 23.7607 2.88378 23.8836 2.98376C24.0066 3.08375 24.0855 3.22918 24.1032 3.38822L24.9915 11.5392L25.4842 16.0583L25.925 20.1011L26.1293 21.9787L26.1889 22.5225C26.2059 22.6817 26.1601 22.8412 26.0616 22.9662C25.9632 23.0911 25.8199 23.1713 25.6634 23.1891Z" fill="#E6E6E6"/>
<path d="M21.0442 13.0604L13.7627 13.8801L11.1804 14.1707C11.0664 14.1836 10.9511 14.1735 10.8409 14.141C10.7307 14.1085 10.6279 14.0542 10.5384 13.9814C10.4488 13.9085 10.3743 13.8184 10.319 13.7163C10.2637 13.6141 10.2288 13.5019 10.2161 13.386C10.2035 13.2701 10.2135 13.1528 10.2454 13.0409C10.2774 12.9289 10.3307 12.8244 10.4024 12.7334C10.4741 12.6424 10.5627 12.5666 10.6632 12.5104C10.7637 12.4542 10.8741 12.4186 10.9881 12.4058L14.1999 12.0442L20.8514 11.2946C21.0817 11.2687 21.3127 11.3369 21.4935 11.484C21.6744 11.6312 21.7904 11.8454 21.816 12.0795C21.8415 12.3136 21.7746 12.5484 21.6299 12.7323C21.4852 12.9163 21.2745 13.0342 21.0442 13.0604Z" fill="white"/>
<path d="M21.4587 16.3344C21.4399 16.3378 21.4211 16.3412 21.402 16.3431L12.9493 17.2949L11.538 17.4542C11.3077 17.4801 11.0766 17.4119 10.8957 17.2646C10.7148 17.1174 10.5989 16.9031 10.5734 16.669C10.548 16.4349 10.615 16.2 10.7599 16.0162C10.9047 15.8323 11.1155 15.7144 11.3459 15.6885L13.3865 15.4591L20.0822 14.7049L21.209 14.578C21.4343 14.5524 21.6606 14.617 21.84 14.7579C22.0194 14.8989 22.1378 15.1052 22.1702 15.3333C22.2026 15.5614 22.1465 15.7934 22.0138 15.9802C21.881 16.167 21.6819 16.294 21.4587 16.3344V16.3344Z" fill="white"/>
<path d="M22.4154 19.2376C22.3461 19.3545 22.2513 19.4535 22.1382 19.5271C22.0252 19.6007 21.8969 19.6468 21.7635 19.6619L18.299 20.0519L12.1287 20.7467L12.1273 20.7464L11.93 20.7688L10.9347 19.9786C10.9285 19.9186 10.9285 19.8581 10.9345 19.798C10.9555 19.5965 11.0436 19.4082 11.1841 19.2644C11.3247 19.1207 11.5093 19.03 11.7074 19.0073L12.5646 18.9105L15.9647 18.5281L18.4112 18.2523L21.5714 17.8963C21.7334 17.878 21.8971 17.9062 22.0441 17.9776C22.1911 18.049 22.3156 18.1608 22.4034 18.3004C22.4912 18.4399 22.5388 18.6016 22.5409 18.7672C22.5431 18.9328 22.4996 19.0957 22.4154 19.2376L22.4154 19.2376Z" fill="white"/>
<path d="M17.5491 9.05826L15.7373 9.26222L14.9371 9.35256L13.7283 9.48854C13.498 9.51443 13.267 9.44626 13.0861 9.29902C12.9052 9.15177 12.7892 8.93751 12.7638 8.70338C12.7383 8.46924 12.8054 8.23441 12.9502 8.05053C13.0951 7.86666 13.3059 7.74881 13.5362 7.72291L17.3561 7.29316C17.5864 7.26714 17.8174 7.33517 17.9983 7.48229C18.1792 7.6294 18.2952 7.84355 18.3208 8.07761C18.3464 8.31168 18.2795 8.5465 18.1348 8.7304C17.99 8.91431 17.7793 9.03224 17.5491 9.05825V9.05826Z" fill="white"/>
<path d="M32.3638 13.9745L30.155 23.2491L26.4684 23.9617L23.0582 24.6216L19.3994 25.3293L18.2303 25.5554C18.1619 25.5685 18.0915 25.5667 18.0238 25.5501C17.9561 25.5334 17.8927 25.5023 17.8377 25.4588L16.8998 24.7142L16.306 24.2428L12.0917 20.8969L14.7713 9.64558C14.7978 9.53364 14.8555 9.43185 14.9375 9.35245C15.0094 9.28219 15.0976 9.23147 15.1939 9.20496C15.2901 9.17846 15.3914 9.17702 15.4884 9.20077L31.9262 13.2456C32.0793 13.2833 32.2113 13.3813 32.2934 13.518C32.3754 13.6547 32.4007 13.8189 32.3638 13.9745Z" fill="#F39200"/>
<path d="M27.2989 21.3527C27.2442 21.5815 27.1024 21.7789 26.9047 21.9015C26.707 22.0242 26.4694 22.0621 26.2443 22.0069L16.599 19.6335C16.374 19.5778 16.1799 19.4336 16.0592 19.2327C15.9386 19.0317 15.9013 18.7904 15.9555 18.5615C15.9579 18.5501 15.9611 18.539 15.9649 18.528C16.0265 18.3073 16.1697 18.1195 16.3645 18.0038C16.5594 17.8881 16.7907 17.8535 17.0101 17.9074L26.6554 20.2808C26.8804 20.3364 27.0746 20.4805 27.1953 20.6814C27.3159 20.8824 27.3532 21.1239 27.2989 21.3527Z" fill="white"/>
<path d="M26.4683 23.9616L23.0581 24.6216L15.8343 22.844C15.6091 22.7886 15.4148 22.6446 15.2941 22.4435C15.1734 22.2425 15.1363 22.001 15.1908 21.7721C15.2453 21.5432 15.387 21.3457 15.5848 21.223C15.7826 21.1003 16.0202 21.0625 16.2454 21.1179L25.8907 23.4913C26.0922 23.5405 26.2698 23.6615 26.3912 23.8323C26.4204 23.8731 26.4462 23.9164 26.4683 23.9616Z" fill="white"/>
<path d="M19.3989 25.3292L18.2298 25.5553C18.1614 25.5685 18.091 25.5667 18.0233 25.55C17.9556 25.5333 17.8922 25.5022 17.8372 25.4587L16.8993 24.7141L19.3989 25.3292Z" fill="white"/>
<path d="M25.3554 16.3795C25.3007 16.6083 25.1589 16.8057 24.9612 16.9283C24.7635 17.051 24.526 17.0888 24.3008 17.0336L20.5649 16.1144C20.3399 16.0587 20.1458 15.9145 20.0252 15.7136C19.9046 15.5126 19.8672 15.2713 19.9214 15.0424C19.9505 14.9194 20.0054 14.8043 20.0823 14.7049C20.1857 14.5705 20.3249 14.4692 20.4834 14.413C20.6419 14.3569 20.8129 14.3483 20.976 14.3883L24.7119 15.3076C24.937 15.363 25.1313 15.5071 25.252 15.7081C25.3727 15.9091 25.4099 16.1506 25.3554 16.3795V16.3795Z" fill="white"/>
<path d="M23.058 24.6216L19.3986 25.3294L18.2298 25.5556C18.1614 25.5686 18.0911 25.5667 18.0234 25.5501C17.9558 25.5334 17.8924 25.5024 17.8374 25.4591L16.8988 24.7143L17.2282 24.7953L17.9235 25.3467C17.9628 25.3776 18.0081 25.3998 18.0564 25.4117C18.1047 25.4236 18.1549 25.4249 18.2038 25.4156L19.0692 25.2483L22.7286 24.5405L23.058 24.6216ZM12.1274 20.747L12.0917 20.8966L11.9294 20.7683L12.1274 20.747ZM23.058 24.6216L19.3986 25.3294L18.2298 25.5556C18.1614 25.5686 18.0911 25.5667 18.0234 25.5501C17.9558 25.5334 17.8924 25.5024 17.8374 25.4591L16.8988 24.7143L17.2282 24.7953L17.9235 25.3467C17.9628 25.3776 18.0081 25.3998 18.0564 25.4117C18.1047 25.4236 18.1549 25.4249 18.2038 25.4156L19.0692 25.2483L22.7286 24.5405L23.058 24.6216ZM23.058 24.6216L19.3986 25.3294L18.2298 25.5556C18.1614 25.5686 18.0911 25.5667 18.0234 25.5501C17.9558 25.5334 17.8924 25.5024 17.8374 25.4591L16.8988 24.7143L17.2282 24.7953L17.9235 25.3467C17.9628 25.3776 18.0081 25.3998 18.0564 25.4117C18.1047 25.4236 18.1549 25.4249 18.2038 25.4156L19.0692 25.2483L22.7286 24.5405L23.058 24.6216ZM34.9804 22.8856L30.8511 40.2241C30.8205 40.3522 30.7411 40.4628 30.6303 40.5315C30.5196 40.6001 30.3866 40.6214 30.2605 40.5905L0.373909 33.2364C0.247856 33.2052 0.139111 33.1245 0.071537 33.012C0.00396729 32.8994 -0.0169067 32.7642 0.013504 32.636L4.1428 15.2974C4.16184 15.2165 4.20069 15.1418 4.25574 15.0802C4.3108 15.0186 4.38026 14.9721 4.4577 14.9451C4.51487 14.9247 4.57533 14.9154 4.63588 14.9179C4.70647 14.9199 4.77565 14.9384 4.83811 14.9719C4.86695 14.9858 4.89416 15.003 4.91921 15.0231L7.37202 16.97L10.9342 19.7984L12.1276 20.7459L12.1274 20.747L12.1284 20.7472L16.5047 24.2198L17.2282 24.7953L17.9235 25.3467C17.9628 25.3776 18.0081 25.3998 18.0564 25.4117C18.1047 25.4236 18.1549 25.4249 18.2038 25.4156L19.0692 25.2483L22.7286 24.5405L26.3913 23.8324L34.4133 22.2807C34.4817 22.2669 34.5522 22.2684 34.62 22.2852C34.7112 22.3078 34.7941 22.3567 34.8588 22.4258C34.8836 22.453 34.9057 22.4826 34.9247 22.5142C34.9906 22.6257 35.0106 22.7591 34.9804 22.8856ZM23.058 24.6216L19.3986 25.3294L18.2298 25.5556C18.1614 25.5686 18.0911 25.5667 18.0234 25.5501C17.9558 25.5334 17.8924 25.5024 17.8374 25.4591L16.8988 24.7143L17.2282 24.7953L17.9235 25.3467C17.9628 25.3776 18.0081 25.3998 18.0564 25.4117C18.1047 25.4236 18.1549 25.4249 18.2038 25.4156L19.0692 25.2483L22.7286 24.5405L23.058 24.6216ZM23.058 24.6216L19.3986 25.3294L18.2298 25.5556C18.1614 25.5686 18.0911 25.5667 18.0234 25.5501C17.9558 25.5334 17.8924 25.5024 17.8374 25.4591L16.8988 24.7143L17.2282 24.7953L17.9235 25.3467C17.9628 25.3776 18.0081 25.3998 18.0564 25.4117C18.1047 25.4236 18.1549 25.4249 18.2038 25.4156L19.0692 25.2483L22.7286 24.5405L23.058 24.6216ZM23.058 24.6216L19.3986 25.3294L18.2298 25.5556C18.1614 25.5686 18.0911 25.5667 18.0234 25.5501C17.9558 25.5334 17.8924 25.5024 17.8374 25.4591L16.8988 24.7143L17.2282 24.7953L17.9235 25.3467C17.9628 25.3776 18.0081 25.3998 18.0564 25.4117C18.1047 25.4236 18.1549 25.4249 18.2038 25.4156L19.0692 25.2483L22.7286 24.5405L23.058 24.6216Z" fill="white"/>
<path d="M23.058 24.6216L19.3986 25.3294L18.2298 25.5556C18.1614 25.5686 18.0911 25.5667 18.0234 25.5501C17.9558 25.5334 17.8924 25.5024 17.8374 25.4591L16.8988 24.7143L17.2282 24.7953L17.9235 25.3467C17.9628 25.3776 18.0081 25.3998 18.0564 25.4117C18.1047 25.4236 18.1549 25.4249 18.2038 25.4156L19.0692 25.2483L22.7286 24.5405L23.058 24.6216ZM12.1274 20.747L12.0917 20.8965L11.9294 20.7683L12.1274 20.747ZM23.058 24.6216L19.3986 25.3294L18.2298 25.5556C18.1614 25.5686 18.0911 25.5667 18.0234 25.5501C17.9558 25.5334 17.8924 25.5024 17.8374 25.4591L16.8988 24.7143L17.2282 24.7953L17.9235 25.3467C17.9628 25.3776 18.0081 25.3998 18.0564 25.4117C18.1047 25.4236 18.1549 25.4249 18.2038 25.4156L19.0692 25.2483L22.7286 24.5405L23.058 24.6216ZM23.058 24.6216L19.3986 25.3294L18.2298 25.5556C18.1614 25.5686 18.0911 25.5667 18.0234 25.5501C17.9558 25.5334 17.8924 25.5024 17.8374 25.4591L16.8988 24.7143L17.2282 24.7953L17.9235 25.3467C17.9628 25.3776 18.0081 25.3998 18.0564 25.4117C18.1047 25.4236 18.1549 25.4249 18.2038 25.4156L19.0692 25.2483L22.7286 24.5405L23.058 24.6216ZM34.7886 22.5249L34.7705 22.5387C34.7674 22.5337 34.7621 22.5292 34.7581 22.5238C34.7177 22.481 34.6674 22.4491 34.6118 22.4309C34.5562 22.4127 34.497 22.4088 34.4396 22.4196L26.4677 23.9611L23.058 24.6216L19.3986 25.3294L18.2298 25.5556C18.1614 25.5686 18.0911 25.5667 18.0234 25.5501C17.9558 25.5334 17.8924 25.5024 17.8374 25.4591L16.8988 24.7143L17.2282 24.7953L17.9235 25.3467C17.9628 25.3776 18.0081 25.3998 18.0564 25.4117C18.1047 25.4236 18.1549 25.4249 18.2038 25.4156L19.0692 25.2483L22.7286 24.5405L26.3913 23.8324L34.4133 22.2807C34.4817 22.2669 34.5522 22.2684 34.62 22.2852L34.7886 22.5249ZM34.9804 22.8856L30.8511 40.2241C30.8205 40.3522 30.7411 40.4628 30.6303 40.5315C30.5196 40.6001 30.3866 40.6214 30.2605 40.5905L0.373909 33.2364C0.247856 33.2052 0.139111 33.1245 0.071537 33.012C0.00396729 32.8994 -0.0169067 32.7642 0.013504 32.636L4.1428 15.2974C4.16184 15.2165 4.20069 15.1418 4.25574 15.0802C4.3108 15.0186 4.38026 14.9721 4.4577 14.9451C4.51487 14.9247 4.57533 14.9154 4.63588 14.9179C4.70647 14.9199 4.77565 14.9384 4.83811 14.9719C4.86695 14.9858 4.89416 15.003 4.91921 15.0231L7.37202 16.97L10.9342 19.7984L12.1276 20.7459L12.1274 20.747L12.1284 20.7472L16.5047 24.2198L17.2282 24.7953L17.9235 25.3467C17.9628 25.3776 18.0081 25.3998 18.0564 25.4117C18.1047 25.4236 18.1549 25.4249 18.2038 25.4156L19.0692 25.2483L22.7286 24.5405L26.3913 23.8324L34.4133 22.2807C34.4817 22.2669 34.5522 22.2684 34.62 22.2852C34.7112 22.3078 34.7941 22.3567 34.8588 22.4258C34.8836 22.453 34.9057 22.4826 34.9247 22.5142C34.9906 22.6257 35.0106 22.7591 34.9804 22.8856ZM34.8442 22.852C34.8564 22.8009 34.8572 22.7477 34.8465 22.6962C34.8359 22.6448 34.814 22.5964 34.7826 22.5546C34.7797 22.5485 34.7756 22.5431 34.7705 22.5387C34.7674 22.5337 34.7621 22.5292 34.7581 22.5239C34.7177 22.481 34.6674 22.4491 34.6118 22.4309C34.5562 22.4127 34.497 22.4088 34.4396 22.4196L26.4677 23.9611L23.058 24.6216L19.3986 25.3294L18.2298 25.5556C18.1614 25.5686 18.0911 25.5667 18.0234 25.5501C17.9558 25.5334 17.8924 25.5024 17.8374 25.4591L16.8988 24.7143L16.3053 24.2429L12.0917 20.8965L11.9294 20.7683L10.9348 19.9785L7.39292 17.1669L4.83232 15.1342C4.79339 15.1034 4.74844 15.0813 4.70047 15.0695C4.68707 15.0661 4.67345 15.0639 4.65971 15.0627C4.64774 15.0605 4.63562 15.0593 4.62346 15.0592C4.58253 15.0588 4.54184 15.0655 4.50315 15.0791C4.44796 15.0986 4.39845 15.1319 4.35912 15.1758C4.31979 15.2198 4.29189 15.273 4.27796 15.3307L0.148666 32.6693C0.137802 32.7147 0.135853 32.7619 0.142944 32.8081C0.150032 32.8543 0.166012 32.8986 0.189972 32.9385C0.213932 32.9784 0.245407 33.0131 0.282581 33.0407C0.319756 33.0682 0.361916 33.088 0.406631 33.099L30.2932 40.4531C30.3834 40.4751 30.4784 40.4598 30.5575 40.4106C30.6366 40.3614 30.6932 40.2823 30.7149 40.1906L34.8442 22.852ZM23.058 24.6216L19.3986 25.3294L18.2298 25.5556C18.1614 25.5686 18.0911 25.5667 18.0234 25.5501C17.9558 25.5334 17.8924 25.5024 17.8374 25.4591L16.8988 24.7143L17.2282 24.7953L17.9235 25.3467C17.9628 25.3776 18.0081 25.3998 18.0564 25.4117C18.1047 25.4236 18.1549 25.4249 18.2038 25.4156L19.0692 25.2483L22.7286 24.5405L23.058 24.6216ZM23.058 24.6216L19.3986 25.3294L18.2298 25.5556C18.1614 25.5686 18.0911 25.5667 18.0234 25.5501C17.9558 25.5334 17.8924 25.5024 17.8374 25.4591L16.8988 24.7143L17.2282 24.7953L17.9235 25.3467C17.9628 25.3776 18.0081 25.3998 18.0564 25.4117C18.1047 25.4236 18.1549 25.4249 18.2038 25.4156L19.0692 25.2483L22.7286 24.5405L23.058 24.6216ZM23.058 24.6216L19.3986 25.3294L18.2298 25.5556C18.1614 25.5686 18.0911 25.5667 18.0234 25.5501C17.9558 25.5334 17.8924 25.5024 17.8374 25.4591L16.8988 24.7143L17.2282 24.7953L17.9235 25.3467C17.9628 25.3776 18.0081 25.3998 18.0564 25.4117C18.1047 25.4236 18.1549 25.4249 18.2038 25.4156L19.0692 25.2483L22.7286 24.5405L23.058 24.6216Z" fill="#3F3D56"/>
<path d="M8.16366 29.8299C8.23098 29.5458 8.18469 29.2461 8.03493 28.9967C7.88518 28.7472 7.64419 28.5683 7.36483 28.4992L3.59275 27.5711C3.31362 27.5034 3.01951 27.551 2.77483 27.7034C2.53015 27.8557 2.35485 28.1005 2.28734 28.3839C2.21982 28.6674 2.2656 28.9666 2.41463 29.2158C2.56367 29.465 2.80381 29.6441 3.08247 29.7137L6.85455 30.6419C7.13406 30.7103 7.42885 30.6633 7.67427 30.5111C7.91969 30.3588 8.09569 30.1139 8.16366 29.8299Z" fill="#F39200"/>
<path d="M49.8497 26.6099C49.3334 26.6099 48.9148 26.1844 48.9148 25.6596C48.9148 25.1347 49.3334 24.7092 49.8497 24.7092C50.3661 24.7092 50.7847 25.1347 50.7847 25.6596C50.7847 26.1844 50.3661 26.6099 49.8497 26.6099Z" fill="white"/>
</g>
<defs>
<clipPath id="clip0">
<rect width="77" height="67" fill="white" transform="matrix(-1 0 0 1 77 0)"/>
</clipPath>
</defs>
</svg>
