<svg width="294" height="318" viewBox="0 0 294 318" fill="none" xmlns="http://www.w3.org/2000/svg">
<g clip-path="url(#clip0)">
<path d="M89.6611 298.194C89.6611 298.194 76.3786 274.657 56.362 267.874C47.9619 265.029 44.4031 263.457 39.3887 256.14" stroke="#E6E6E6" stroke-width="2" stroke-miterlimit="10"/>
<path d="M44.7945 276.721C47.7974 275.682 54.6123 267.23 54.6123 267.23C54.6123 267.23 44.0238 264.807 41.0204 265.847C39.6253 266.38 38.4921 267.435 37.8604 268.789C37.2287 270.142 37.1479 271.688 37.6351 273.1C38.1223 274.512 39.1394 275.679 40.4714 276.355C41.8033 277.031 43.3459 277.162 44.773 276.722L44.7945 276.721Z" fill="#E6E6E6"/>
<path d="M64.863 288.628C67.997 288.112 76.1533 280.936 76.1533 280.936C76.1533 280.936 66.1248 276.758 62.9891 277.274C62.2436 277.397 61.5295 277.666 60.8878 278.065C60.246 278.464 59.6892 278.986 59.249 279.6C58.8088 280.214 58.4939 280.909 58.3223 281.645C58.1506 282.381 58.1256 283.143 58.2487 283.889C58.3718 284.635 58.6405 285.349 59.0395 285.99C59.4385 286.632 59.96 287.189 60.5743 287.629C61.1885 288.069 61.8834 288.384 62.6193 288.556C63.3553 288.728 64.1178 288.753 64.8634 288.63L64.863 288.628Z" fill="#E6E6E6"/>
<path d="M35.7862 248.039C38.3867 249.861 42.6387 259.863 42.6387 259.863C42.6387 259.863 31.7873 259.29 29.1841 257.469C28.5581 257.038 28.0236 256.488 27.6115 255.849C27.1994 255.211 26.9178 254.497 26.783 253.749C26.6482 253.001 26.6628 252.234 26.8261 251.491C26.9893 250.749 27.2979 250.047 27.7341 249.424C28.1702 248.802 28.7253 248.272 29.3673 247.866C30.0093 247.459 30.7255 247.183 31.4745 247.055C32.2235 246.926 32.9905 246.947 33.7313 247.117C34.4722 247.286 35.1721 247.601 35.7907 248.042L35.7862 248.039Z" fill="#E6E6E6"/>
<path d="M88.7332 297.626C88.7332 297.626 85.5815 264.996 66.715 247.639C58.7999 240.353 53.3017 230.827 51.3405 220.237C50.4169 215.218 49.9562 210.124 49.964 205.021" stroke="#535461" stroke-width="2" stroke-miterlimit="10"/>
<path d="M38.1482 194.012C39.5878 197.588 50.2377 205.345 50.2377 205.345C50.2377 205.345 52.5318 192.37 51.0922 188.794C50.7539 187.937 50.2495 187.155 49.6079 186.494C48.9663 185.833 48.2002 185.305 47.3538 184.941C46.5074 184.577 45.5974 184.384 44.6761 184.374C43.7549 184.363 42.8406 184.535 41.986 184.879C41.1314 185.223 40.3533 185.733 39.6965 186.379C39.0398 187.025 38.5173 187.795 38.1593 188.644C37.8013 189.493 37.6147 190.404 37.6104 191.325C37.6061 192.247 37.7841 193.16 38.1342 194.012H38.1482Z" fill="#F39200"/>
<path d="M35.4247 218.125C38.5765 220.342 51.7345 221.067 51.7345 221.067C51.7345 221.067 46.6108 208.928 43.459 206.708C42.7097 206.177 41.8628 205.798 40.967 205.595C40.0712 205.392 39.1441 205.367 38.2388 205.523C37.3335 205.679 36.4678 206.011 35.6915 206.502C34.9151 206.993 34.2433 207.633 33.7145 208.384C33.1858 209.135 32.8105 209.983 32.6103 210.88C32.41 211.776 32.3887 212.704 32.5475 213.608C32.7064 214.513 33.0422 215.378 33.5359 216.152C34.0296 216.927 34.6713 217.597 35.4243 218.123L35.4247 218.125Z" fill="#F39200"/>
<path d="M49.5333 251.775C53.3857 252.097 65.0971 246.08 65.0971 246.08C65.0971 246.08 54.5448 238.179 50.7032 237.867C49.779 237.769 48.8447 237.857 47.9549 238.125C47.0651 238.393 46.2378 238.836 45.5215 239.428C44.8052 240.02 44.2143 240.749 43.7836 241.573C43.3528 242.396 43.0907 243.297 43.0128 244.223C42.935 245.149 43.0427 246.082 43.3299 246.965C43.6171 247.849 44.0779 248.667 44.6852 249.37C45.2925 250.074 46.0342 250.649 46.8667 251.061C47.6992 251.474 48.6058 251.717 49.5333 251.775Z" fill="#F39200"/>
<path d="M65.9375 274.834C69.6707 275.8 82.2403 271.85 82.2403 271.85C82.2403 271.85 73.1731 262.289 69.4431 261.322C68.5547 261.088 67.6288 261.032 66.7187 261.157C65.8085 261.282 64.9319 261.586 64.1393 262.05C63.3466 262.514 62.6534 263.131 62.0995 263.864C61.5456 264.597 61.1417 265.432 60.9112 266.321C60.6807 267.21 60.6281 268.136 60.7563 269.046C60.8845 269.956 61.191 270.831 61.6583 271.622C62.1256 272.413 62.7444 273.104 63.4793 273.655C64.2142 274.207 65.0507 274.607 65.9408 274.835L65.9375 274.834Z" fill="#F39200"/>
<path d="M65.609 216.28C64.0469 219.806 53.1413 227.2 53.1413 227.2C53.1413 227.2 51.2856 214.153 52.8435 210.631C53.2145 209.792 53.7469 209.035 54.4104 208.403C55.0739 207.77 55.8554 207.275 56.7104 206.945C57.5654 206.614 58.4771 206.455 59.3934 206.477C60.3098 206.499 61.2128 206.702 62.051 207.072C62.8892 207.443 63.6461 207.976 64.2786 208.639C64.911 209.303 65.4065 210.084 65.7369 210.939C66.0673 211.794 66.2261 212.706 66.2041 213.622C66.1822 214.539 65.9799 215.442 65.609 216.28V216.28Z" fill="#F39200"/>
<path d="M84.45 243.488C81.9073 246.385 69.2891 250.179 69.2891 250.179C69.2891 250.179 71.4219 237.175 73.9646 234.282C75.1855 232.892 76.9089 232.043 78.7554 231.923C80.602 231.804 82.4206 232.422 83.811 233.643C85.2015 234.864 86.0499 236.588 86.1698 238.434C86.2896 240.281 85.671 242.099 84.45 243.49V243.488Z" fill="#F39200"/>
<path d="M99.138 272.449C97.1067 275.734 85.3235 281.607 85.3235 281.607C85.3235 281.607 85.2254 268.432 87.2427 265.147C87.7224 264.365 88.3514 263.685 89.0938 263.146C89.8362 262.607 90.6774 262.22 91.5694 262.007C92.4615 261.793 93.3869 261.757 94.2928 261.901C95.1987 262.045 96.0673 262.366 96.8492 262.846C97.631 263.325 98.3107 263.954 98.8495 264.697C99.3882 265.439 99.7755 266.28 99.9891 267.172C100.203 268.065 100.239 268.99 100.095 269.896C99.9507 270.802 99.6297 271.67 99.15 272.452L99.138 272.449Z" fill="#F39200"/>
<path d="M146.933 318C228.082 318 293.866 313.693 293.866 308.38C293.866 303.066 228.082 298.759 146.933 298.759C65.784 298.759 0 303.066 0 308.38C0 313.693 65.784 318 146.933 318Z" fill="#E6E6E6"/>
<path opacity="0.1" d="M259.663 87.5094C259.663 87.5094 272.034 83.5464 273.3 87.5094H259.663Z" fill="black"/>
<path d="M151.065 102.393C151.065 102.393 153.861 87.723 162.863 87.6483L169.439 101.185L165.054 104.209C165.054 104.209 155.525 104.512 151.065 102.393Z" fill="#D0CDE1"/>
<path opacity="0.502" d="M169.439 101.181L165.053 104.21C165.053 104.21 158.368 104.422 153.554 103.242C152.698 103.042 151.864 102.758 151.064 102.393C151.07 102.312 151.088 102.233 151.116 102.157C151.114 102.138 151.114 102.12 151.116 102.101C151.529 100.26 152.099 98.4577 152.818 96.7133C153.094 96.0564 153.408 95.3763 153.747 94.6996C155.064 92.1631 156.916 89.6773 159.449 88.4463C160.387 87.9856 161.407 87.7181 162.45 87.6599H162.851L162.993 87.9589L165.22 92.5326L169.439 101.181Z" fill="black"/>
<path d="M244.153 162.136C244.153 162.136 253.592 161.229 254.438 161.908C255.283 162.587 260.64 166.069 263.813 163.874C266.987 161.679 264.871 154.042 264.871 153.739C264.871 153.436 264.572 142.625 264.572 142.625L258.897 134.987L251.791 121.616L237.271 120.18L237.664 141.418L237.59 152.308L244.153 162.136Z" fill="#D0CDE1"/>
<path opacity="0.503" d="M244.153 162.136C244.153 162.136 253.592 161.229 254.438 161.908C255.283 162.587 260.64 166.069 263.813 163.874C266.987 161.679 264.871 154.042 264.871 153.739C264.871 153.436 264.572 142.625 264.572 142.625L258.897 134.987L251.791 121.616L237.271 120.18L237.664 141.418L237.59 152.308L244.153 162.136Z" fill="black"/>
<path d="M160.968 87.271C160.968 87.271 160.216 96.4976 154.467 96.6469C154.467 96.6469 152.839 95.6637 150.648 94.0274C145.599 90.248 137.583 82.9839 139.798 76.2275C142.975 66.5489 158.4 84.3959 158.4 84.3959L159.58 85.725L160.968 87.271Z" fill="#FBBEBE"/>
<path opacity="0.1" d="M160.967 87.2706C160.967 87.2706 160.216 96.4972 154.466 96.6464C154.466 96.6464 152.838 95.6633 150.648 94.027L150.156 93.3977C151.131 93.9064 152.205 94.195 153.303 94.2431C154.746 94.2744 156.37 93.7396 157.412 91.6554C158.01 90.4678 158.536 89.245 158.986 87.9939C159.261 87.2612 159.456 86.5007 159.567 85.7258L160.967 87.2706Z" fill="black"/>
<path d="M158.474 103.981L157.18 102.318L152.815 96.7137L150.597 93.8505C151.57 94.3617 152.645 94.6518 153.743 94.7C155.186 94.7313 156.811 94.1965 157.857 92.1082C158.455 90.9207 158.98 89.698 159.43 88.4467C160.15 86.4054 160.134 85.3538 159.884 85.0017C159.633 84.6495 161.488 86.3741 162.381 87.2199L162.412 87.2512C162.668 87.4871 162.833 87.6446 162.833 87.6446L162.986 87.9514L165.177 92.3325L165.2 92.5173C165.4 93.9095 166.139 102.731 158.474 103.981Z" fill="#E6E6E6"/>
<path d="M203.772 298.633C203.772 298.633 197.422 302.794 194.246 302.172C191.071 301.551 187.816 303.234 187.816 303.234C185.628 305.625 182.869 307.42 179.797 308.453C174.657 310.191 167.476 309.511 163.393 308.146C161.459 307.505 161.305 306.672 162.233 305.649C163.268 304.504 165.639 303.124 168.384 301.492C173.599 298.393 179.196 292.265 179.196 292.265C179.196 292.265 179.27 290.755 180.179 290.074C180.735 289.599 181.246 289.072 181.704 288.501C182.515 287.542 183.278 286.535 183.278 286.535L201.958 287.141C201.958 287.141 202.277 288.49 202.524 289.866C202.733 290.995 202.896 292.143 202.788 292.588C202.56 293.567 203.319 294.476 203.319 294.476L203.653 297.563L203.772 298.633Z" fill="#2F2E41"/>
<path d="M242.875 303.847C242.651 304.751 242.38 306.376 242.257 307.139C242.215 307.398 242.194 307.556 242.194 307.556C242.194 307.556 240.679 310.883 232.287 312.094C223.895 313.306 223.895 309.294 223.895 309.294C223.895 309.294 223.926 308.862 223.981 308.212C224.127 306.443 224.429 303.058 224.65 302.337C224.952 301.354 224.425 297.043 224.425 297.043L224.335 292.536L224.272 289.39L238.189 287.951C238.277 288.992 238.427 290.026 238.637 291.05C238.724 291.612 238.932 292.149 239.246 292.623C240.001 293.46 240.458 297.161 240.458 297.161C240.458 297.161 243.17 302.636 242.875 303.847Z" fill="#2F2E41"/>
<path opacity="0.1" d="M201.973 287.137C201.973 287.137 202.291 288.486 202.539 289.862C200.522 290.233 191.7 291.762 189.494 290.692C187.001 289.481 181.628 288.8 181.628 288.8L181.719 288.494C182.529 287.534 183.292 286.527 183.292 286.527L201.973 287.137Z" fill="black"/>
<path opacity="0.1" d="M238.628 291.065C235.089 290.467 227.372 291.915 224.329 292.536L224.266 289.39L238.18 287.951C238.268 288.997 238.417 290.037 238.628 291.065Z" fill="black"/>
<path d="M246.497 176.428L246.195 187.09C246.195 187.09 246.588 203.348 245.44 205.92C244.291 208.492 244.303 218.851 244.303 218.851C244.303 218.851 245.062 223.767 244.228 224.821C243.395 225.875 244 229.816 244.622 231.857C245.243 233.899 244.693 238.968 244.693 238.968L244.543 267.552C244.543 267.552 243.714 274.961 242.652 276.023C242.347 276.337 242.13 276.726 242.025 277.151C241.919 277.576 241.928 278.021 242.05 278.441C242.05 278.441 241.143 282.673 241.37 283.431C241.597 284.189 242.05 285.924 240.312 286.755C238.574 287.585 239.022 290.235 239.022 290.235C234.865 289.252 223.071 291.903 223.071 291.903C223.071 291.903 220.711 287.061 219.74 283.809C218.768 280.556 221.179 278.515 222.764 278.303C224.349 278.09 221.631 275.274 221.631 275.274C221.631 275.274 221.934 274.881 221.178 272.175C220.421 269.47 221.327 262.493 221.571 260.68C221.815 258.867 222.932 250.093 222.932 250.093C222.932 250.093 222.33 238.979 222.782 238.523C223.235 238.067 224.749 233.681 223.994 232.23C223.239 230.779 222.027 221.34 222.027 220.825C222.027 220.31 221.044 208.043 221.044 208.043C221.044 208.043 220.14 199.497 220.364 197.684C220.588 195.871 219.758 189.142 219.758 189.142C219.758 183.542 216.51 177.493 216.51 177.493L216.427 177.71L209.4 196.194C209.4 196.194 208.267 201.787 207.28 204.964C206.661 207.121 206.168 209.313 205.806 211.528L205.739 211.921C205.711 212.09 205.688 212.236 205.672 212.346L205.625 212.653C205.625 212.653 206.152 216.66 205.322 217.947C204.493 219.233 203.549 223.087 203.549 224.16C203.549 225.234 203.62 229.308 203.62 229.308C203.62 229.308 203.927 237.398 203.093 238.307C202.259 239.215 202.7 239.97 202.7 239.97C202.7 239.97 204.064 246.094 203.459 247.682C202.853 249.27 203.309 252.972 203.309 252.972C203.309 252.972 202.11 264.668 201.976 265.281C201.843 265.894 200.993 270.575 201.897 270.952C202.802 271.329 204.544 273.599 204.544 273.599C204.544 273.599 204.937 283.506 203.565 284.261C202.192 285.016 202.955 288.874 202.955 288.874C202.955 288.874 191.995 290.994 189.497 289.781C187 288.569 181.632 287.89 181.632 287.89L182.383 285.404C182.342 285.491 181.84 286.297 181.482 283.202C181.089 279.949 184.283 281.538 184.283 281.538C184.283 281.538 186.776 282.144 182.765 278.211C178.753 274.278 180.723 270.271 180.95 270.271C181.177 270.271 181.705 264.45 181.705 264.45C181.705 264.45 182.386 260.97 181.854 258.248C181.323 255.526 180.875 247.055 180.875 247.055C180.875 247.055 181.268 240.629 180.572 238.285C179.876 235.941 181.026 231.706 181.253 230.718C181.48 229.731 180.572 220.739 180.572 220.739C180.572 220.739 181.332 216.507 180.875 213.408C180.419 210.309 181.331 198.888 181.331 198.888L182.692 185.729C182.692 185.729 183.671 181.646 183.522 179.983C183.372 178.32 184.654 172.511 184.654 172.511C184.654 172.511 184.505 170.391 185.26 168.882C186.015 167.372 186.322 162.381 186.322 162.381L193.582 145.741L197.121 131.071L245.141 130.617C245.141 130.617 245.317 131.888 245.604 134.2C245.891 136.513 246.308 139.938 246.784 144.162C247.201 148 247.657 152.515 248.104 157.534C249.522 173.553 246.497 176.428 246.497 176.428Z" fill="#2F2E41"/>
<path d="M242.038 44.0137L230.841 55.9657C230.841 55.9657 216.479 50.2159 217.989 48.2496C218.575 47.4867 218.48 45.1032 218.142 42.4351C217.611 38.2507 216.479 33.425 216.479 33.425C216.479 33.425 241.581 29.3425 239.462 33.5743C238.675 35.124 238.825 36.929 239.305 38.5967C239.918 40.5373 240.841 42.3661 242.038 44.012V44.0137Z" fill="#FBBEBE"/>
<path opacity="0.1" d="M239.462 33.576C238.676 35.1257 238.322 35.275 238.805 36.9426C235.522 40.4821 231.333 44.3168 226.157 44.3168C223.376 44.3211 220.632 43.6774 218.143 42.4367C217.612 38.2523 216.479 33.4267 216.479 33.4267C216.479 33.4267 241.582 29.3441 239.462 33.576Z" fill="black"/>
<path d="M244.154 25.864C244.154 30.638 242.257 35.2165 238.881 38.5922C235.506 41.9679 230.927 43.8644 226.153 43.8644C221.38 43.8644 216.801 41.9679 213.425 38.5922C210.05 35.2165 208.153 30.638 208.153 25.864C208.153 25.7774 208.153 25.6908 208.153 25.6047C208.188 20.8316 210.117 16.2678 213.516 12.9171C216.915 9.5664 221.506 7.70331 226.279 7.73771C231.052 7.77211 235.616 9.70117 238.967 13.1005C242.317 16.4999 244.181 21.091 244.146 25.864H244.154Z" fill="#FBBEBE"/>
<path opacity="0.1" d="M246.761 144.6C244.378 144.619 236.438 144.686 227.565 144.828H227.459L224.526 144.877H224.436C213.916 145.046 203.549 142.989 199.388 143.383C190.539 144.212 202.563 135.214 202.563 135.214C209.156 136.815 215.939 137.5 222.719 137.251L225.263 137.121C233.304 136.665 241.387 135.91 245.603 134.644C245.896 136.978 246.305 140.392 246.761 144.6Z" fill="black"/>
<path d="M246.761 144.147C244.378 144.147 236.438 144.234 227.565 144.372H227.459L224.525 144.423H224.434C213.914 144.592 203.547 142.535 199.386 142.924C190.538 143.754 202.562 134.759 202.562 134.759C209.155 136.357 215.937 137.043 222.717 136.796L225.262 136.663C233.303 136.209 241.385 135.451 245.602 134.185C245.896 136.521 246.305 139.923 246.761 144.147Z" fill="#7C5C5C"/>
<path opacity="0.1" d="M221.316 49.0047L207.402 55.5096L196.666 138.539C196.666 138.539 203.016 135.668 206.645 137.481C210.274 139.295 221.464 137.635 221.464 137.635C221.464 137.635 229.632 137.179 230.843 138.088C232.054 138.998 246.266 134.309 246.266 134.309C246.266 134.309 248.838 128.559 246.872 127.655C244.905 126.751 247.477 117.823 247.477 117.823L246.266 57.9298L243.848 50.2184L237.346 46.283L230.684 51.5767L227.537 52.0303L221.316 49.0047Z" fill="black"/>
<path d="M221.316 48.0962L207.402 54.6011L196.666 137.638C196.666 137.638 203.016 134.763 206.645 136.58C210.274 138.397 221.464 136.73 221.464 136.73C221.464 136.73 229.632 136.276 230.843 137.183C232.054 138.091 246.266 133.404 246.266 133.404C246.266 133.404 248.838 127.658 246.872 126.75C244.905 125.841 247.477 116.918 247.477 116.918L246.266 57.0168L243.848 49.3053L237.346 45.3704L230.684 50.6678L227.537 51.116L221.316 48.0962Z" fill="#E6E6E6"/>
<path opacity="0.1" d="M221.088 51.954C221.088 51.954 225.095 56.7166 225.021 57.6997C224.946 58.6828 224.796 61.0268 224.796 61.0268L221.768 67.1543C221.768 67.1543 220.105 74.792 220.105 76.3809C220.105 77.9698 217.458 91.7189 217.458 91.7189L214.283 112.893L210.275 140.646L214.358 147.678L219.199 143.596L225.625 94.1367L226.986 84.3831C226.986 84.3831 228.421 66.8389 228.421 65.0256C228.421 63.2124 227.592 58.4461 227.592 58.4461C227.592 58.4461 228.575 53.9075 232.657 52.8497C236.74 51.792 232.355 52.6217 232.355 52.6217L229.995 50.7301L227.954 51.5639C227.954 51.5639 222.299 49.8381 221.088 51.954Z" fill="black"/>
<path d="M220.636 51.5095C220.636 51.5095 224.643 56.2721 224.569 57.2552C224.494 58.2383 224.341 60.5823 224.341 60.5823L221.316 66.7098C221.316 66.7098 219.673 74.3388 219.673 75.9244C219.673 77.51 217.026 91.2625 217.026 91.2625L213.828 112.468L209.84 140.203L213.927 147.239L218.744 143.145L225.177 93.6971L226.538 83.9436C226.538 83.9436 227.974 66.3993 227.974 64.5824C227.974 62.7654 227.144 58.0028 227.144 58.0028C227.144 58.0028 228.127 53.4667 232.209 52.4064C236.292 51.3462 231.907 52.1821 231.907 52.1821L229.547 50.2905L227.538 51.1153C227.538 51.1153 221.847 49.3833 220.636 51.5095Z" fill="#2F2E41"/>
<path opacity="0.1" d="M217.989 43.5613C217.989 43.5613 217.383 44.0149 217.234 47.038C217.085 50.0612 214.966 56.87 214.966 56.87C214.966 56.87 222.831 51.4229 226.764 52.0287L217.989 43.5613Z" fill="black"/>
<path d="M217.989 42.6528C217.989 42.6528 217.383 43.1065 217.234 46.1333C217.085 49.1602 214.966 55.9653 214.966 55.9653C214.966 55.9653 222.831 50.5219 226.764 51.128L217.989 42.6528Z" fill="#E6E6E6"/>
<path opacity="0.1" d="M239.466 41.139L227.062 52.0291C227.062 52.0291 237.5 58.2313 238.86 59.7451C240.221 61.259 241.582 44.9205 241.582 44.9205L239.466 41.139Z" fill="black"/>
<path d="M239.918 40.2343L227.538 51.1165C227.538 51.1165 237.971 57.3146 239.337 58.828C240.702 60.3415 242.062 44.005 242.062 44.005L239.918 40.2343Z" fill="#E6E6E6"/>
<path opacity="0.1" d="M218.442 43.5617C218.442 43.5617 217.081 42.8813 215.795 44.8479C214.509 46.8145 212.09 47.7189 212.09 47.7189C212.09 47.7189 198.326 49.9136 197.799 51.7264L191.373 52.1198C191.373 52.1198 189.105 52.4188 188.875 57.1855C188.646 61.9521 187.424 62.3926 187.424 62.3926C187.424 62.3926 184.777 67.0805 185.001 69.4991C185.225 71.9177 182.96 73.128 182.96 73.128L192.399 97.7058C192.399 97.7058 192.702 107.841 190.96 111.545C189.218 115.25 185.97 131.662 185.97 131.662C185.97 131.662 187.335 131.359 187.256 132.263C187.178 133.168 185.593 143.079 185.593 143.079C185.593 143.079 185.139 147.012 184.385 148.372C183.631 149.733 183.551 156.844 183.551 156.844L182.34 161.984C182.34 161.984 185.215 168.414 189.6 167.49C193.985 166.566 201.977 149.439 201.977 149.439L207.042 130.911L210.975 112.612L212.108 100.212L213.925 72.7606L216.571 54.6106C216.571 54.6106 219.503 44.8495 218.442 43.5617Z" fill="black"/>
<path d="M217.989 42.6532C217.989 42.6532 216.628 41.9728 215.342 43.9394C214.057 45.9061 211.638 46.8141 211.638 46.8141C211.638 46.8141 197.873 49.0047 197.346 50.8216L190.916 51.2151C190.916 51.2151 188.648 51.5177 188.423 56.2807C188.198 61.0437 186.983 61.4994 186.983 61.4994C186.983 61.4994 184.337 66.1873 184.565 68.6059C184.793 71.0245 182.524 72.2348 182.524 72.2348L191.962 96.8126C191.962 96.8126 192.265 106.948 190.527 110.652C188.789 114.356 185.537 130.768 185.537 130.768C185.537 130.768 186.898 130.466 186.823 131.374C186.749 132.283 185.16 142.185 185.16 142.185C185.16 142.185 184.706 146.118 183.949 147.479C183.191 148.84 183.119 155.951 183.119 155.951L181.917 161.075C181.917 161.075 184.792 167.505 189.177 166.581C193.562 165.656 201.503 148.509 201.503 148.509L206.572 129.982L210.505 111.679L211.641 99.2783L213.456 71.827L216.102 53.677C216.102 53.677 219.047 43.939 217.989 42.6532Z" fill="#2F2E41"/>
<path opacity="0.1" d="M169.439 101.181L165.054 104.211C165.054 104.211 158.368 104.423 153.554 103.244L151.116 102.158L150.625 101.946L151.128 102.103C153.657 102.854 155.635 102.838 157.18 102.32C163.386 100.231 162.686 89.9824 162.462 87.6619C162.439 87.4298 162.421 87.2685 162.411 87.2215C162.41 87.2124 162.41 87.2031 162.411 87.1939L162.446 87.2529C162.531 87.3922 162.628 87.5239 162.735 87.6463C162.822 87.7444 162.912 87.8467 163.011 87.9411L165.201 92.3223L165.225 92.507L169.439 101.181Z" fill="black"/>
<path d="M184.639 71.6142L182.523 72.22L182.221 76.5463C182.221 76.5463 179.723 76.1528 179.043 79.1183C178.362 82.0837 177.155 83.4445 177.155 83.4445C177.155 83.4445 172.994 86.925 172.766 89.8706L170.198 91.4439C170.198 91.4439 164.218 90.0517 162.863 87.65C162.863 87.65 165.585 107.161 151.065 102.394C151.065 102.394 167.323 109.505 168.078 110.488C168.833 111.471 173.828 114.342 178.362 111.923C182.897 109.505 183.884 105.784 183.884 105.784C183.884 105.784 188.269 99.6572 188.423 98.7483C188.576 97.8394 191.962 96.7821 191.962 96.7821L198.467 81.0494L184.639 71.6142Z" fill="#2F2E41"/>
<path opacity="0.1" d="M237.728 50.2159L239.918 40.2363C239.918 40.2363 240.901 43.4888 241.885 44.2438L245.137 46.7371C245.137 46.7371 248.39 48.2513 249.522 48.2513C250.655 48.2513 256.782 49.8246 257.537 50.6699C258.292 51.5153 261.321 50.898 261.321 50.898C261.321 50.898 263.814 51.7277 266.009 52.2588C268.203 52.79 269.261 56.4197 268.805 57.8552C268.622 58.57 268.624 59.3194 268.809 60.0334C268.995 60.7474 269.359 61.4026 269.867 61.9378C270.771 62.845 271.228 65.796 271.228 65.796C272.34 66.1581 273.263 66.9457 273.796 67.9866C274.555 69.6501 274.327 73.2803 274.327 73.2803L263.06 89.161C263.06 89.161 263.209 95.2885 262.757 96.6333C262.305 97.9781 264.33 121.135 264.33 121.135L266.69 160.911C266.69 160.911 263.591 163.558 262.91 163.861C262.23 164.164 261.546 149.793 261.546 149.266C261.546 148.74 244.081 123.101 244.081 123.101C244.081 123.101 241.721 119.318 241.721 118.488C241.721 117.658 239.526 110.017 239.526 110.017L236.198 95.2704L237.728 50.2159Z" fill="black"/>
<path d="M275.262 72.4126C275.262 72.9318 275.235 73.2786 275.235 73.2786L263.977 89.1473C263.977 89.1473 264.134 95.2708 263.678 96.6197C263.414 97.4061 263.992 105.547 264.527 112.229C264.921 117.054 265.267 121.121 265.267 121.121L266.262 137.993L267.607 160.898C267.607 160.898 264.508 163.544 263.828 163.847C263.147 164.15 262.467 149.779 262.467 149.249C262.467 148.719 244.997 123.088 244.997 123.088C244.997 123.088 242.638 119.305 242.638 118.475C242.638 117.644 240.447 110.003 240.447 110.003L237.12 95.2551L238.63 50.189L239.916 40.2095C239.916 40.2095 241.808 43.4619 242.791 44.2133C243.774 44.9646 246.04 46.7106 246.04 46.7106C246.04 46.7106 249.292 48.2249 250.429 48.2249C251.565 48.2249 257.688 49.7981 258.444 50.6435C259.199 51.4889 262.227 50.8715 262.227 50.8715C262.227 50.8715 264.72 51.7012 266.911 52.2324C269.101 52.7635 270.163 56.3933 269.711 57.8247C269.527 58.5396 269.527 59.2896 269.712 60.0043C269.897 60.719 270.261 61.375 270.769 61.9109C271.676 62.8182 272.129 65.765 272.129 65.765C273.243 66.1296 274.168 66.9199 274.701 67.9634C275.23 69.1366 275.282 71.234 275.262 72.4126Z" fill="#2F2E41"/>
<path opacity="0.1" d="M182.826 273.903C183.219 273.903 199.084 274.509 198.781 277.081C198.478 279.653 182.826 273.903 182.826 273.903Z" fill="black"/>
<path opacity="0.1" d="M186.381 278.213C186.381 278.213 197.043 279.951 194.247 281.54C191.451 283.129 186.381 278.213 186.381 278.213Z" fill="black"/>
<path opacity="0.1" d="M226.004 272.24C226.004 272.24 243.701 273.754 241.056 275.716C238.41 277.679 232.132 277.984 231.829 278.076C231.526 278.167 226.004 272.24 226.004 272.24Z" fill="black"/>
<path opacity="0.1" d="M223.888 280.03C223.888 280.03 233.72 281.694 234.019 283.57C234.318 285.445 223.888 280.03 223.888 280.03Z" fill="black"/>
<path opacity="0.1" d="M229.331 234.504C229.331 234.504 238.329 236.62 238.86 238.043L229.331 234.504Z" fill="black"/>
<path opacity="0.1" d="M194.62 241.009C194.62 241.009 189.932 242.37 194.471 245.091C199.009 247.813 194.62 241.009 194.62 241.009Z" fill="black"/>
<path opacity="0.1" d="M215.417 168.334C215.948 168.334 224.191 165.613 227.062 166.824C229.933 168.036 233.492 168.032 233.492 168.032L215.417 168.334Z" fill="black"/>
<path opacity="0.1" d="M216.479 176.967L216.396 177.714L209.369 196.198C209.369 196.198 208.236 201.79 207.249 204.968C206.63 207.125 206.137 209.317 205.774 211.532L212.017 172.829L216.479 176.967Z" fill="black"/>
<path d="M227.459 144.372L224.525 144.423H224.435L222.716 136.801C223.561 136.759 224.407 136.714 225.26 136.663L227.459 144.372Z" fill="#2F2E41"/>
<path d="M263.134 135.143L261.25 136.693L254.959 141.865C254.959 141.865 237.942 150.942 233.254 142.321C229.121 134.727 248.415 129.304 253.06 128.12C253.693 127.958 254.049 127.88 254.049 127.88L263.134 135.143Z" fill="#FBBEBE"/>
<path opacity="0.1" d="M190.463 60.8029C190.463 60.8029 193.79 62.313 194.546 64.4318C195.301 66.5506 190.463 60.8029 190.463 60.8029Z" fill="black"/>
<path opacity="0.1" d="M180.179 83.4874C180.179 83.4874 175.338 89.3865 177.304 91.6558C179.271 93.9252 180.179 83.4874 180.179 83.4874Z" fill="black"/>
<path opacity="0.1" d="M266.689 64.1299C266.689 64.1299 262.151 64.5836 262.001 68.5152L266.689 64.1299Z" fill="black"/>
<path opacity="0.1" d="M224.643 126.139C225.097 125.685 235.533 110.258 237.952 111.619L224.643 126.139Z" fill="black"/>
<path opacity="0.1" d="M244.154 25.8636C244.157 28.8276 243.426 31.7463 242.026 34.3587L241.893 34.3352C240.752 34.0952 240.158 32.7619 239.285 31.9359C238.75 31.4258 238.068 31.0961 237.336 30.9932C236.604 30.8902 235.858 31.0191 235.203 31.3619C234.541 31.7586 234.002 32.332 233.648 33.0177C233.294 33.7033 233.138 34.4741 233.197 35.2436C232.623 32.8209 232.804 30.2452 232.241 27.8183C231.679 25.3915 229.984 22.9378 227.667 22.8945C226.669 22.8945 225.5 23.2657 224.781 22.5011C224.344 22.0475 224.254 21.3213 223.927 20.7901C222.272 18.1097 217.241 19.4648 215.173 20.8372C213.183 22.1568 210.719 24.4084 208.163 25.5882C208.197 20.8152 210.126 16.2513 213.525 12.9006C215.208 11.2415 217.202 9.93019 219.392 9.04151C221.582 8.15283 223.925 7.7042 226.289 7.72123C228.652 7.73826 230.989 8.22063 233.166 9.14078C235.343 10.0609 237.317 11.4008 238.976 13.084C240.635 14.7672 241.946 16.7607 242.835 18.9507C243.724 21.1406 244.172 23.4842 244.155 25.8476L244.154 25.8636Z" fill="black"/>
<path d="M223.927 20.3501C224.257 20.8969 224.344 21.6124 224.78 22.0611C225.5 22.8083 226.668 22.4269 227.667 22.4545C229.983 22.4957 231.679 24.9519 232.241 27.3783C232.803 29.8047 232.634 32.3768 233.196 34.8011C233.137 34.032 233.294 33.2617 233.649 32.5769C234.004 31.8921 234.543 31.3199 235.206 30.9248C235.86 30.5825 236.605 30.4535 237.336 30.5557C238.068 30.658 238.749 30.9864 239.284 31.4951C240.157 32.3248 240.751 33.6543 241.892 33.8943C243.032 34.1343 244.133 33.0407 244.542 31.8374C244.951 30.634 244.936 29.3165 245.195 28.0699C245.71 25.7102 247.248 23.7811 248.101 21.5374C249.114 18.8075 249.086 15.8003 248.023 13.0898C247.457 11.67 246.611 10.392 246.056 8.97217C245.184 6.81707 240.342 3.91475 239.284 1.86152C237.503 -1.57567 238.651 0.567469 235.206 1.86152C233.562 2.48008 231.407 0.280454 229.739 0.827268C227.501 1.54316 225.115 1.00418 222.798 0.681698C220.481 0.359218 217.929 0.327877 216.069 1.86152C213.929 3.61165 213.343 6.90326 211.349 8.8266C210.504 9.6328 209.453 10.1462 208.561 10.8951C207.669 11.644 206.901 12.7508 206.988 13.9665C207.121 15.5397 208.655 16.9554 208.089 18.4066C207.884 18.8258 207.6 19.2012 207.251 19.5118C205.565 21.2765 204.311 23.409 203.59 25.7412C207.636 27.0034 212.018 22.5436 215.184 20.4359C217.234 19.0284 222.271 17.6874 223.927 20.3501Z" fill="#2F2E41"/>
<path opacity="0.1" d="M263.133 135.143L261.25 136.693C259.59 133.94 252.774 128.407 252.774 128.407L253.069 128.123C253.702 127.962 254.059 127.883 254.059 127.883L263.133 135.143Z" fill="black"/>
<path d="M264.95 132.341C264.95 132.341 264.274 134.024 263.574 135.488C262.873 136.951 262.115 138.264 262.075 137.191C262 135.071 253.23 127.96 253.23 127.96L254.41 126.806L255.79 125.468L264.95 132.341Z" fill="#E6E6E6"/>
<path opacity="0.1" d="M265.253 121.148L266.248 138.02C263.889 134.366 257.451 125.002 253.3 125.305L263.362 113.738C263.78 113.271 264.165 112.775 264.514 112.254C264.899 117.081 265.253 121.148 265.253 121.148Z" fill="black"/>
<path opacity="0.1" d="M264.95 132.341C264.95 132.341 264.274 134.024 263.574 135.488C260.939 131.874 257.313 127.603 254.419 126.804L255.799 125.467L264.95 132.341Z" fill="black"/>
<path d="M272.513 71.1738L275.234 73.2897C275.234 73.2897 279.771 73.3684 280.224 77.1479C280.678 80.9274 284.837 82.654 284.837 82.654C284.837 82.654 287.936 85.753 287.936 87.1902C287.936 88.6273 290.296 91.2018 290.296 91.4257C290.296 91.6496 292.564 96.267 292.262 97.0968C291.96 97.9265 294.681 101.56 293.835 102.921C293.151 104.142 292.544 105.404 292.018 106.701C292.018 106.701 288.479 113.508 286.65 114.794C284.821 116.081 276.519 126.892 276.519 126.892C276.519 126.892 267.596 137.176 267.596 140.354C267.596 140.354 258.895 125.834 253.757 126.196L263.813 114.625C263.813 114.625 265.555 112.737 265.63 111.601C265.705 110.464 270.467 105.25 272.736 105.021C272.736 105.021 273.13 101.922 272.131 101.846C271.131 101.77 270.316 99.3488 270.316 99.3488C270.316 99.3488 263.662 91.483 263.587 86.4924C263.512 81.5018 272.513 71.1738 272.513 71.1738Z" fill="#2F2E41"/>
<path opacity="0.1" d="M276.52 78.3472C276.52 78.3472 270.165 83.0351 271.531 84.5452C272.896 86.0554 276.52 78.3472 276.52 78.3472Z" fill="black"/>
<path opacity="0.1" d="M203.772 298.633C203.772 298.633 197.422 302.794 194.246 302.172C191.071 301.551 187.816 303.234 187.816 303.234C185.628 305.625 182.869 307.42 179.797 308.453C174.657 310.191 167.476 309.511 163.393 308.146C161.459 307.505 161.305 306.672 162.233 305.649C166.673 306.534 176.596 308.292 179.27 307.013C182.747 305.35 187.737 301.72 187.737 301.72C187.737 301.72 194.246 300.812 195.151 300.812C195.796 300.812 200.818 298.74 203.653 297.548L203.772 298.633Z" fill="black"/>
<path opacity="0.1" d="M193.602 77.4387C193.602 77.4387 193.602 94.6802 192.127 96.3829C190.653 98.0857 193.602 77.4387 193.602 77.4387Z" fill="black"/>
<path opacity="0.1" d="M261.772 82.9958L263.963 89.1568C263.963 89.1568 264.836 83.1101 261.772 82.9958Z" fill="black"/>
<g opacity="0.1">
<path opacity="0.1" d="M208.303 16.901C208.858 15.4812 207.406 14.0931 207.218 12.5747C207.024 13.0038 206.941 13.474 206.974 13.9434C207.072 15.0877 207.918 16.1616 208.154 17.2193C208.214 17.1182 208.264 17.0115 208.303 16.9006V16.901Z" fill="black"/>
<path opacity="0.1" d="M233.402 33.1867C232.86 30.7994 233.009 28.2744 232.466 25.8913C231.923 23.5081 230.213 21.0066 227.896 20.9675C226.897 20.9675 225.729 21.3332 225.006 20.574C224.573 20.1258 224.483 19.3942 224.156 18.8631C222.5 16.1826 217.47 17.5435 215.398 18.9142C212.302 20.9712 208.055 25.2698 204.091 24.2941C203.898 24.7543 203.72 25.2183 203.576 25.6962C207.622 26.9585 212.004 22.4986 215.17 20.391C217.234 19.0186 222.272 17.6379 223.928 20.3398C224.258 20.8866 224.345 21.6021 224.782 22.0508C225.501 22.798 226.669 22.4166 227.668 22.4442C229.985 22.4854 231.68 24.9416 232.242 27.368C232.804 29.7944 232.635 32.3664 233.197 34.7908C233.159 34.2488 233.229 33.7045 233.404 33.19L233.402 33.1867Z" fill="black"/>
<path opacity="0.1" d="M244.771 30.347C244.377 31.5503 243.28 32.6518 242.116 32.4039C240.953 32.1561 240.382 30.8307 239.513 30.0047C238.977 29.4952 238.296 29.1662 237.563 29.0639C236.831 28.9616 236.085 29.0912 235.431 29.4344C234.8 29.8111 234.282 30.3496 233.929 30.994C233.576 31.6384 233.402 32.3654 233.425 33.0996C233.727 32.1741 234.362 31.3936 235.206 30.9091C235.861 30.5668 236.606 30.4377 237.337 30.54C238.068 30.6423 238.749 30.9707 239.285 31.4794C240.158 32.3091 240.751 33.6386 241.892 33.8786C243.033 34.1186 244.134 33.025 244.543 31.8216C244.759 31.1151 244.899 30.3873 244.96 29.6509C244.911 29.8865 244.848 30.1189 244.771 30.347Z" fill="black"/>
<path opacity="0.1" d="M248.326 20.0458C247.477 22.2875 245.934 24.2224 245.424 26.582C245.322 27.0579 245.263 27.5457 245.204 28.0332C245.723 25.6735 247.253 23.7543 248.102 21.5205C248.48 20.5091 248.716 19.4502 248.803 18.374C248.687 18.9424 248.528 19.5011 248.327 20.0454L248.326 20.0458Z" fill="black"/>
</g>
<path d="M145.37 76.4326L145.341 76.4473C145.264 76.4863 145.233 76.5805 145.272 76.6578L146.408 78.9137C146.447 78.991 146.542 79.0221 146.619 78.9831L146.648 78.9684C146.725 78.9295 146.756 78.8353 146.717 78.758L145.581 76.5021C145.542 76.4248 145.447 76.3937 145.37 76.4326Z" fill="#3A3768"/>
<path d="M142.147 72.1031L133.507 76.4572C133.051 76.6868 132.868 77.2422 133.097 77.6978L142.807 96.9656C143.036 97.4211 143.592 97.6044 144.047 97.3748L152.687 93.0207C153.143 92.7912 153.326 92.2357 153.097 91.7802L143.387 72.5124C143.158 72.0568 142.602 71.8736 142.147 72.1031Z" fill="#3A3768"/>
<path d="M140.985 73.3565C140.935 73.3789 140.89 73.4116 140.853 73.4525C140.817 73.4933 140.789 73.5414 140.772 73.5937C140.755 73.6459 140.749 73.7012 140.754 73.7559C140.76 73.8105 140.777 73.8634 140.804 73.9112L140.845 73.9858C140.873 74.0337 140.89 74.0869 140.895 74.1417C140.9 74.1966 140.894 74.2519 140.877 74.3042C140.859 74.3565 140.831 74.4046 140.794 74.4453C140.757 74.486 140.711 74.5184 140.661 74.5404L136.299 76.7388C136.252 76.7661 136.199 76.7832 136.144 76.7888C136.09 76.7944 136.034 76.7885 135.982 76.7714C135.93 76.7543 135.882 76.7265 135.841 76.6897C135.8 76.6529 135.767 76.608 135.745 76.5578L135.704 76.479C135.681 76.4289 135.649 76.3839 135.608 76.3471C135.567 76.3103 135.519 76.2825 135.466 76.2655C135.414 76.2484 135.359 76.2425 135.304 76.2481C135.25 76.2537 135.197 76.2707 135.149 76.298L134.299 76.7228C134.206 76.7691 134.123 76.8334 134.055 76.912C133.987 76.9906 133.935 77.0819 133.903 77.1806C133.87 77.2794 133.858 77.3836 133.866 77.4873C133.874 77.591 133.902 77.692 133.949 77.7846L143.228 96.2019C143.274 96.295 143.338 96.378 143.417 96.4461C143.496 96.5142 143.587 96.566 143.686 96.5985C143.784 96.6311 143.889 96.6438 143.992 96.6358C144.096 96.6278 144.197 96.5993 144.29 96.552L151.9 92.7169C151.992 92.6706 152.075 92.6064 152.142 92.5281C152.21 92.4499 152.262 92.359 152.294 92.2607C152.327 92.1624 152.34 92.0587 152.332 91.9555C152.324 91.8522 152.296 91.7515 152.25 91.6591L142.983 73.239C142.937 73.1468 142.872 73.0646 142.794 72.9973C142.715 72.93 142.624 72.8788 142.526 72.8467C142.428 72.8146 142.324 72.8021 142.221 72.8101C142.118 72.818 142.018 72.8462 141.926 72.893L140.985 73.3565Z" fill="#F39200"/>
<path opacity="0.1" d="M92.2811 289.571H77.2427V291.953H92.2811V289.571Z" fill="black"/>
<path d="M125.823 74.8225V121.732C125.824 122.35 125.703 122.963 125.467 123.534C125.231 124.106 124.885 124.625 124.447 125.062C124.01 125.5 123.491 125.846 122.919 126.082C122.348 126.318 121.735 126.439 121.117 126.438H116.062V70.1201H121.116C121.734 70.119 122.346 70.2399 122.918 70.4757C123.489 70.7115 124.008 71.0576 124.445 71.4943C124.882 71.931 125.229 72.4496 125.465 73.0205C125.702 73.5914 125.823 74.2033 125.823 74.8212L125.823 74.8225Z" fill="#D0CDE1"/>
<path opacity="0.2" d="M121.986 76.1322V120.634C121.7 120.682 121.41 120.705 121.12 120.705H120.396V76.0617H121.121C121.411 76.0613 121.7 76.0849 121.986 76.1322Z" fill="black"/>
<path d="M103.508 142.99H85.2847V289.112H103.508V142.99Z" fill="#D0CDE1"/>
<path d="M72.485 286.82H114.21C118.791 286.82 123.185 288.64 126.424 291.88C129.663 295.119 131.483 299.513 131.483 304.094V306.751H55.2119V304.094C55.2119 299.513 57.0318 295.119 60.2711 291.88C63.5104 288.64 67.9039 286.82 72.485 286.82Z" fill="#D0CDE1"/>
<path opacity="0.1" d="M103.508 163.107H85.2847V180.634H103.508V163.107Z" fill="black"/>
<path opacity="0.1" d="M103.508 161.914H85.2847V179.442H103.508V161.914Z" fill="black"/>
<path d="M105.405 162.508H83.5957V180.036H105.405V162.508Z" fill="#D0CDE1"/>
<path d="M113.325 131.981V139.255C113.325 140.152 113.148 141.039 112.805 141.867C112.462 142.695 111.96 143.448 111.326 144.081C110.692 144.715 109.94 145.218 109.112 145.561C108.284 145.904 107.396 146.08 106.5 146.08H82.3097C80.4998 146.08 78.764 145.361 77.4842 144.081C76.2044 142.801 75.4854 141.065 75.4854 139.255V131.981C75.4866 130.172 76.2062 128.438 77.486 127.16C78.7658 125.882 80.501 125.164 82.3097 125.165H106.5C108.309 125.164 110.044 125.882 111.324 127.16C112.603 128.438 113.323 130.172 113.324 131.981H113.325Z" fill="#D0CDE1"/>
<path opacity="0.1" d="M113.325 131.981V132.723C111.103 135.636 108.24 137.996 104.957 139.62C101.675 141.245 98.0614 142.09 94.3987 142.09C90.7361 142.09 87.1229 141.245 83.8402 139.62C80.5576 137.996 77.6941 135.636 75.4727 132.723V131.981C75.4739 130.172 76.1935 128.438 77.4733 127.16C78.7531 125.882 80.4883 125.164 82.297 125.165H106.488C107.384 125.163 108.273 125.338 109.102 125.679C109.931 126.021 110.685 126.522 111.32 127.155C111.955 127.788 112.459 128.541 112.803 129.369C113.147 130.197 113.324 131.084 113.325 131.981Z" fill="black"/>
<path d="M72.5187 64.2037H116.279C116.788 64.2037 117.277 64.4063 117.638 64.7668C117.998 65.1274 118.201 65.6164 118.201 66.1262V120.875C118.201 126.346 116.027 131.593 112.159 135.462C108.29 139.331 103.043 141.505 97.5712 141.505H91.226C85.7546 141.505 80.5074 139.331 76.6385 135.462C72.7697 131.593 70.5962 126.346 70.5962 120.875V66.1262C70.5962 65.6164 70.7987 65.1274 71.1593 64.7668C71.5198 64.4063 72.0088 64.2037 72.5187 64.2037Z" fill="#D0CDE1"/>
<path d="M80.432 42.619H108.02C112.065 42.619 115.345 45.1704 115.345 48.3181V64.6458C115.345 65.7803 114.163 66.6995 112.706 66.6995H75.7466C74.2889 66.6995 73.1074 65.7799 73.1074 64.6458V48.3156C73.1074 45.1683 76.387 42.6165 80.4324 42.6165L80.432 42.619Z" fill="#D0CDE1"/>
<path opacity="0.2" d="M108.73 55.1215H79.0605V57.3113H108.73V55.1215Z" fill="black"/>
<path opacity="0.1" d="M113.321 71.2319H75.4771V98.6951H113.321V71.2319Z" fill="black"/>
<path d="M113.321 70.6335H75.4771V98.0968H113.321V70.6335Z" fill="#F39200"/>
<g opacity="0.1">
<path opacity="0.1" d="M83.8766 102.803H76.0147C75.8348 102.803 75.689 102.949 75.689 103.129V105.516C75.689 105.696 75.8348 105.842 76.0147 105.842H83.8766C84.0566 105.842 84.2024 105.696 84.2024 105.516V103.129C84.2024 102.949 84.0566 102.803 83.8766 102.803Z" fill="black"/>
<path opacity="0.1" d="M93.5104 102.803H85.6485C85.4686 102.803 85.3228 102.949 85.3228 103.129V105.516C85.3228 105.696 85.4686 105.842 85.6485 105.842H93.5104C93.6904 105.842 93.8362 105.696 93.8362 105.516V103.129C93.8362 102.949 93.6904 102.803 93.5104 102.803Z" fill="black"/>
<path opacity="0.1" d="M103.144 102.803H95.2823C95.1024 102.803 94.9565 102.949 94.9565 103.129V105.516C94.9565 105.696 95.1024 105.842 95.2823 105.842H103.144C103.324 105.842 103.47 105.696 103.47 105.516V103.129C103.47 102.949 103.324 102.803 103.144 102.803Z" fill="black"/>
<path opacity="0.1" d="M112.782 102.803H104.921C104.741 102.803 104.595 102.949 104.595 103.129V105.516C104.595 105.696 104.741 105.842 104.921 105.842H112.782C112.962 105.842 113.108 105.696 113.108 105.516V103.129C113.108 102.949 112.962 102.803 112.782 102.803Z" fill="black"/>
<path opacity="0.1" d="M83.8766 108.754H76.0147C75.8348 108.754 75.689 108.899 75.689 109.079V111.467C75.689 111.647 75.8348 111.792 76.0147 111.792H83.8766C84.0566 111.792 84.2024 111.647 84.2024 111.467V109.079C84.2024 108.899 84.0566 108.754 83.8766 108.754Z" fill="black"/>
<path opacity="0.1" d="M93.5104 108.754H85.6485C85.4686 108.754 85.3228 108.899 85.3228 109.079V111.467C85.3228 111.647 85.4686 111.792 85.6485 111.792H93.5104C93.6904 111.792 93.8362 111.647 93.8362 111.467V109.079C93.8362 108.899 93.6904 108.754 93.5104 108.754Z" fill="black"/>
<path opacity="0.1" d="M103.144 108.754H95.2823C95.1024 108.754 94.9565 108.899 94.9565 109.079V111.467C94.9565 111.647 95.1024 111.792 95.2823 111.792H103.144C103.324 111.792 103.47 111.647 103.47 111.467V109.079C103.47 108.899 103.324 108.754 103.144 108.754Z" fill="black"/>
<path opacity="0.1" d="M83.8766 114.555H76.0147C75.8348 114.555 75.689 114.701 75.689 114.881V117.268C75.689 117.448 75.8348 117.594 76.0147 117.594H83.8766C84.0566 117.594 84.2024 117.448 84.2024 117.268V114.881C84.2024 114.701 84.0566 114.555 83.8766 114.555Z" fill="black"/>
<path opacity="0.1" d="M93.5104 114.555H85.6485C85.4686 114.555 85.3228 114.701 85.3228 114.881V117.268C85.3228 117.448 85.4686 117.594 85.6485 117.594H93.5104C93.6904 117.594 93.8362 117.448 93.8362 117.268V114.881C93.8362 114.701 93.6904 114.555 93.5104 114.555Z" fill="black"/>
<path opacity="0.1" d="M103.144 114.555H95.2823C95.1024 114.555 94.9565 114.701 94.9565 114.881V117.268C94.9565 117.448 95.1024 117.594 95.2823 117.594H103.144C103.324 117.594 103.47 117.448 103.47 117.268V114.881C103.47 114.701 103.324 114.555 103.144 114.555Z" fill="black"/>
<path opacity="0.1" d="M83.8766 120.955H76.0147C75.8348 120.955 75.689 121.101 75.689 121.281V123.668C75.689 123.848 75.8348 123.994 76.0147 123.994H83.8766C84.0566 123.994 84.2024 123.848 84.2024 123.668V121.281C84.2024 121.101 84.0566 120.955 83.8766 120.955Z" fill="black"/>
<path opacity="0.1" d="M93.5104 120.955H85.6485C85.4686 120.955 85.3228 121.101 85.3228 121.281V123.668C85.3228 123.848 85.4686 123.994 85.6485 123.994H93.5104C93.6904 123.994 93.8362 123.848 93.8362 123.668V121.281C93.8362 121.101 93.6904 120.955 93.5104 120.955Z" fill="black"/>
<path opacity="0.1" d="M103.144 120.955H95.2823C95.1024 120.955 94.9565 121.101 94.9565 121.281V123.668C94.9565 123.848 95.1024 123.994 95.2823 123.994H103.144C103.324 123.994 103.47 123.848 103.47 123.668V121.281C103.47 121.101 103.324 120.955 103.144 120.955Z" fill="black"/>
<path opacity="0.1" d="M112.782 108.754H104.921C104.741 108.754 104.595 108.899 104.595 109.079V111.467C104.595 111.647 104.741 111.792 104.921 111.792H112.782C112.962 111.792 113.108 111.647 113.108 111.467V109.079C113.108 108.899 112.962 108.754 112.782 108.754Z" fill="black"/>
<path opacity="0.1" d="M111.85 114.228H105.929C105.48 114.228 105.117 114.592 105.117 115.041V124.247C105.117 124.695 105.48 125.059 105.929 125.059H111.85C112.299 125.059 112.662 124.695 112.662 124.247V115.041C112.662 114.592 112.299 114.228 111.85 114.228Z" fill="black"/>
</g>
<path d="M83.8766 102.205H76.0147C75.8348 102.205 75.689 102.351 75.689 102.531V104.918C75.689 105.098 75.8348 105.244 76.0147 105.244H83.8766C84.0566 105.244 84.2024 105.098 84.2024 104.918V102.531C84.2024 102.351 84.0566 102.205 83.8766 102.205Z" fill="white"/>
<path d="M93.5104 102.205H85.6485C85.4686 102.205 85.3228 102.351 85.3228 102.531V104.918C85.3228 105.098 85.4686 105.244 85.6485 105.244H93.5104C93.6903 105.244 93.8362 105.098 93.8362 104.918V102.531C93.8362 102.351 93.6903 102.205 93.5104 102.205Z" fill="white"/>
<path d="M103.145 102.205H95.2828C95.1029 102.205 94.957 102.351 94.957 102.531V104.918C94.957 105.098 95.1029 105.244 95.2828 105.244H103.145C103.325 105.244 103.47 105.098 103.47 104.918V102.531C103.47 102.351 103.325 102.205 103.145 102.205Z" fill="white"/>
<path d="M112.782 102.205H104.921C104.741 102.205 104.595 102.351 104.595 102.531V104.918C104.595 105.098 104.741 105.244 104.921 105.244H112.782C112.962 105.244 113.108 105.098 113.108 104.918V102.531C113.108 102.351 112.962 102.205 112.782 102.205Z" fill="#2F2E41"/>
<path d="M83.8766 108.155H76.0147C75.8348 108.155 75.689 108.301 75.689 108.481V110.868C75.689 111.048 75.8348 111.194 76.0147 111.194H83.8766C84.0566 111.194 84.2024 111.048 84.2024 110.868V108.481C84.2024 108.301 84.0566 108.155 83.8766 108.155Z" fill="white"/>
<path d="M93.5104 108.155H85.6485C85.4686 108.155 85.3228 108.301 85.3228 108.481V110.868C85.3228 111.048 85.4686 111.194 85.6485 111.194H93.5104C93.6903 111.194 93.8362 111.048 93.8362 110.868V108.481C93.8362 108.301 93.6903 108.155 93.5104 108.155Z" fill="white"/>
<path d="M103.145 108.155H95.2828C95.1029 108.155 94.957 108.301 94.957 108.481V110.868C94.957 111.048 95.1029 111.194 95.2828 111.194H103.145C103.325 111.194 103.47 111.048 103.47 110.868V108.481C103.47 108.301 103.325 108.155 103.145 108.155Z" fill="white"/>
<path d="M83.8766 113.956H76.0147C75.8348 113.956 75.689 114.102 75.689 114.282V116.67C75.689 116.849 75.8348 116.995 76.0147 116.995H83.8766C84.0566 116.995 84.2024 116.849 84.2024 116.67V114.282C84.2024 114.102 84.0566 113.956 83.8766 113.956Z" fill="white"/>
<path d="M93.5104 113.956H85.6485C85.4686 113.956 85.3228 114.102 85.3228 114.282V116.67C85.3228 116.849 85.4686 116.995 85.6485 116.995H93.5104C93.6903 116.995 93.8362 116.849 93.8362 116.67V114.282C93.8362 114.102 93.6903 113.956 93.5104 113.956Z" fill="white"/>
<path d="M103.145 113.956H95.2828C95.1029 113.956 94.957 114.102 94.957 114.282V116.67C94.957 116.849 95.1029 116.995 95.2828 116.995H103.145C103.325 116.995 103.47 116.849 103.47 116.67V114.282C103.47 114.102 103.325 113.956 103.145 113.956Z" fill="white"/>
<path d="M83.8766 120.357H76.0147C75.8348 120.357 75.689 120.502 75.689 120.682V123.07C75.689 123.25 75.8348 123.395 76.0147 123.395H83.8766C84.0566 123.395 84.2024 123.25 84.2024 123.07V120.682C84.2024 120.502 84.0566 120.357 83.8766 120.357Z" fill="white"/>
<path d="M93.5104 120.357H85.6485C85.4686 120.357 85.3228 120.502 85.3228 120.682V123.07C85.3228 123.25 85.4686 123.395 85.6485 123.395H93.5104C93.6903 123.395 93.8362 123.25 93.8362 123.07V120.682C93.8362 120.502 93.6903 120.357 93.5104 120.357Z" fill="white"/>
<path d="M103.145 120.357H95.2828C95.1029 120.357 94.957 120.502 94.957 120.682V123.07C94.957 123.25 95.1029 123.395 95.2828 123.395H103.145C103.325 123.395 103.47 123.25 103.47 123.07V120.682C103.47 120.502 103.325 120.357 103.145 120.357Z" fill="white"/>
<path d="M112.782 108.155H104.921C104.741 108.155 104.595 108.301 104.595 108.481V110.868C104.595 111.048 104.741 111.194 104.921 111.194H112.782C112.962 111.194 113.108 111.048 113.108 110.868V108.481C113.108 108.301 112.962 108.155 112.782 108.155Z" fill="#2F2E41"/>
<path d="M111.85 113.634H105.929C105.48 113.634 105.117 113.998 105.117 114.446V123.652C105.117 124.101 105.48 124.465 105.929 124.465H111.85C112.299 124.465 112.662 124.101 112.662 123.652V114.446C112.662 113.998 112.299 113.634 111.85 113.634Z" fill="#F39200"/>
<path d="M98.4241 94.761H94.3457V95.2493H98.4241V94.761Z" fill="white"/>
<path d="M104.136 94.761H100.058V95.2493H104.136V94.761Z" fill="white"/>
<path d="M109.849 94.761H105.771V95.2493H109.849V94.761Z" fill="white"/>
</g>
<defs>
<clipPath id="clip0">
<rect width="294" height="318" fill="white"/>
</clipPath>
</defs>
</svg>
